<mxfile host="Electron" modified="2024-04-18T08:54:56.460Z" agent="Mozilla/5.0 (Windows NT 10.0; Win64; x64) AppleWebKit/537.36 (KHTML, like Gecko) draw.io/21.6.8 Chrome/114.0.5735.289 Electron/25.5.0 Safari/537.36" etag="_O8uUWaKC8pJR3AdBrfW" version="21.6.8" type="device">
  <diagram name="Page-1" id="uACyF0ygkfpHSAh8YgiS">
    <mxGraphModel dx="1098" dy="868" grid="1" gridSize="10" guides="1" tooltips="1" connect="1" arrows="1" fold="1" page="1" pageScale="1" pageWidth="850" pageHeight="1100" math="0" shadow="0">
      <root>
        <mxCell id="0" />
        <mxCell id="1" parent="0" />
        <mxCell id="1LvPg4HEHRrJ_WL0kR_Z-335" value="?" style="rounded=0;whiteSpace=wrap;html=1;fontFamily=JetBrainsMono Nerd Font;" parent="1" vertex="1">
          <mxGeometry x="280" y="2560" width="160" height="40" as="geometry" />
        </mxCell>
        <mxCell id="1LvPg4HEHRrJ_WL0kR_Z-208" value="AAAAAAAA" style="rounded=0;whiteSpace=wrap;html=1;fontFamily=JetBrainsMono Nerd Font;" parent="1" vertex="1">
          <mxGeometry x="280" y="1640" width="160" height="40" as="geometry" />
        </mxCell>
        <mxCell id="1LvPg4HEHRrJ_WL0kR_Z-209" value="AAAAAAAA" style="rounded=0;whiteSpace=wrap;html=1;fontFamily=JetBrainsMono Nerd Font;" parent="1" vertex="1">
          <mxGeometry x="440" y="1640" width="160" height="40" as="geometry" />
        </mxCell>
        <mxCell id="1LvPg4HEHRrJ_WL0kR_Z-210" value="AAAAAAAA" style="rounded=0;whiteSpace=wrap;html=1;fontFamily=JetBrainsMono Nerd Font;" parent="1" vertex="1">
          <mxGeometry x="280" y="1680" width="160" height="40" as="geometry" />
        </mxCell>
        <mxCell id="1LvPg4HEHRrJ_WL0kR_Z-211" value="AAAAAAAA" style="rounded=0;whiteSpace=wrap;html=1;fontFamily=JetBrainsMono Nerd Font;" parent="1" vertex="1">
          <mxGeometry x="440" y="1680" width="160" height="40" as="geometry" />
        </mxCell>
        <mxCell id="1LvPg4HEHRrJ_WL0kR_Z-1" value="" style="rounded=0;whiteSpace=wrap;html=1;fontFamily=JetBrainsMono Nerd Font;" parent="1" vertex="1">
          <mxGeometry x="280" y="40" width="160" height="40" as="geometry" />
        </mxCell>
        <mxCell id="1LvPg4HEHRrJ_WL0kR_Z-2" value="0x71" style="rounded=0;whiteSpace=wrap;html=1;fontFamily=JetBrainsMono Nerd Font;" parent="1" vertex="1">
          <mxGeometry x="440" y="40" width="160" height="40" as="geometry" />
        </mxCell>
        <mxCell id="1LvPg4HEHRrJ_WL0kR_Z-9" value="" style="rounded=0;whiteSpace=wrap;html=1;fontFamily=JetBrainsMono Nerd Font;" parent="1" vertex="1">
          <mxGeometry x="280" y="80" width="160" height="40" as="geometry" />
        </mxCell>
        <mxCell id="1LvPg4HEHRrJ_WL0kR_Z-10" value="" style="rounded=0;whiteSpace=wrap;html=1;fontFamily=JetBrainsMono Nerd Font;" parent="1" vertex="1">
          <mxGeometry x="440" y="80" width="160" height="40" as="geometry" />
        </mxCell>
        <mxCell id="1LvPg4HEHRrJ_WL0kR_Z-11" value="" style="rounded=0;whiteSpace=wrap;html=1;fontFamily=JetBrainsMono Nerd Font;" parent="1" vertex="1">
          <mxGeometry x="280" y="120" width="160" height="40" as="geometry" />
        </mxCell>
        <mxCell id="1LvPg4HEHRrJ_WL0kR_Z-12" value="" style="rounded=0;whiteSpace=wrap;html=1;fontFamily=JetBrainsMono Nerd Font;" parent="1" vertex="1">
          <mxGeometry x="440" y="120" width="160" height="40" as="geometry" />
        </mxCell>
        <mxCell id="1LvPg4HEHRrJ_WL0kR_Z-13" value="" style="rounded=0;whiteSpace=wrap;html=1;fontFamily=JetBrainsMono Nerd Font;" parent="1" vertex="1">
          <mxGeometry x="280" y="160" width="160" height="40" as="geometry" />
        </mxCell>
        <mxCell id="1LvPg4HEHRrJ_WL0kR_Z-14" value="" style="rounded=0;whiteSpace=wrap;html=1;fontFamily=JetBrainsMono Nerd Font;" parent="1" vertex="1">
          <mxGeometry x="440" y="160" width="160" height="40" as="geometry" />
        </mxCell>
        <mxCell id="1LvPg4HEHRrJ_WL0kR_Z-15" value="" style="rounded=0;whiteSpace=wrap;html=1;fontFamily=JetBrainsMono Nerd Font;" parent="1" vertex="1">
          <mxGeometry x="280" y="200" width="160" height="40" as="geometry" />
        </mxCell>
        <mxCell id="1LvPg4HEHRrJ_WL0kR_Z-16" value="" style="rounded=0;whiteSpace=wrap;html=1;fontFamily=JetBrainsMono Nerd Font;" parent="1" vertex="1">
          <mxGeometry x="440" y="200" width="160" height="40" as="geometry" />
        </mxCell>
        <mxCell id="1LvPg4HEHRrJ_WL0kR_Z-17" value="" style="rounded=0;whiteSpace=wrap;html=1;fontFamily=JetBrainsMono Nerd Font;" parent="1" vertex="1">
          <mxGeometry x="280" y="240" width="160" height="40" as="geometry" />
        </mxCell>
        <mxCell id="1LvPg4HEHRrJ_WL0kR_Z-18" value="" style="rounded=0;whiteSpace=wrap;html=1;fontFamily=JetBrainsMono Nerd Font;" parent="1" vertex="1">
          <mxGeometry x="440" y="240" width="160" height="40" as="geometry" />
        </mxCell>
        <mxCell id="1LvPg4HEHRrJ_WL0kR_Z-19" value="" style="rounded=0;whiteSpace=wrap;html=1;fontFamily=JetBrainsMono Nerd Font;" parent="1" vertex="1">
          <mxGeometry x="280" y="280" width="160" height="40" as="geometry" />
        </mxCell>
        <mxCell id="1LvPg4HEHRrJ_WL0kR_Z-20" value="" style="rounded=0;whiteSpace=wrap;html=1;fontFamily=JetBrainsMono Nerd Font;" parent="1" vertex="1">
          <mxGeometry x="440" y="280" width="160" height="40" as="geometry" />
        </mxCell>
        <mxCell id="1LvPg4HEHRrJ_WL0kR_Z-21" value="" style="rounded=0;whiteSpace=wrap;html=1;fontFamily=JetBrainsMono Nerd Font;" parent="1" vertex="1">
          <mxGeometry x="280" y="320" width="160" height="40" as="geometry" />
        </mxCell>
        <mxCell id="1LvPg4HEHRrJ_WL0kR_Z-22" value="0x111" style="rounded=0;whiteSpace=wrap;html=1;fontFamily=JetBrainsMono Nerd Font;" parent="1" vertex="1">
          <mxGeometry x="440" y="320" width="160" height="40" as="geometry" />
        </mxCell>
        <mxCell id="1LvPg4HEHRrJ_WL0kR_Z-23" value="-80" style="text;html=1;strokeColor=none;fillColor=none;align=center;verticalAlign=middle;whiteSpace=wrap;rounded=0;fontFamily=JetBrainsMono Nerd Font;" parent="1" vertex="1">
          <mxGeometry x="240" y="40" width="40" height="40" as="geometry" />
        </mxCell>
        <mxCell id="1LvPg4HEHRrJ_WL0kR_Z-24" value="-70" style="text;html=1;strokeColor=none;fillColor=none;align=center;verticalAlign=middle;whiteSpace=wrap;rounded=0;fontFamily=JetBrainsMono Nerd Font;" parent="1" vertex="1">
          <mxGeometry x="240" y="80" width="40" height="40" as="geometry" />
        </mxCell>
        <mxCell id="1LvPg4HEHRrJ_WL0kR_Z-25" value="-60" style="text;html=1;strokeColor=none;fillColor=none;align=center;verticalAlign=middle;whiteSpace=wrap;rounded=0;fontFamily=JetBrainsMono Nerd Font;" parent="1" vertex="1">
          <mxGeometry x="240" y="120" width="40" height="40" as="geometry" />
        </mxCell>
        <mxCell id="1LvPg4HEHRrJ_WL0kR_Z-26" value="-50" style="text;html=1;strokeColor=none;fillColor=none;align=center;verticalAlign=middle;whiteSpace=wrap;rounded=0;fontFamily=JetBrainsMono Nerd Font;" parent="1" vertex="1">
          <mxGeometry x="240" y="160" width="40" height="40" as="geometry" />
        </mxCell>
        <mxCell id="1LvPg4HEHRrJ_WL0kR_Z-27" value="-40" style="text;html=1;strokeColor=none;fillColor=none;align=center;verticalAlign=middle;whiteSpace=wrap;rounded=0;fontFamily=JetBrainsMono Nerd Font;" parent="1" vertex="1">
          <mxGeometry x="240" y="200" width="40" height="40" as="geometry" />
        </mxCell>
        <mxCell id="1LvPg4HEHRrJ_WL0kR_Z-28" value="-30" style="text;html=1;strokeColor=none;fillColor=none;align=center;verticalAlign=middle;whiteSpace=wrap;rounded=0;fontFamily=JetBrainsMono Nerd Font;" parent="1" vertex="1">
          <mxGeometry x="240" y="240" width="40" height="40" as="geometry" />
        </mxCell>
        <mxCell id="1LvPg4HEHRrJ_WL0kR_Z-29" value="-20" style="text;html=1;strokeColor=none;fillColor=none;align=center;verticalAlign=middle;whiteSpace=wrap;rounded=0;fontFamily=JetBrainsMono Nerd Font;" parent="1" vertex="1">
          <mxGeometry x="240" y="280" width="40" height="40" as="geometry" />
        </mxCell>
        <mxCell id="1LvPg4HEHRrJ_WL0kR_Z-30" value="-10" style="text;html=1;strokeColor=none;fillColor=none;align=center;verticalAlign=middle;whiteSpace=wrap;rounded=0;fontFamily=JetBrainsMono Nerd Font;" parent="1" vertex="1">
          <mxGeometry x="240" y="320" width="40" height="40" as="geometry" />
        </mxCell>
        <mxCell id="1LvPg4HEHRrJ_WL0kR_Z-32" value="" style="endArrow=none;html=1;rounded=0;entryX=0;entryY=0;entryDx=0;entryDy=0;exitX=0;exitY=1;exitDx=0;exitDy=0;strokeWidth=4;fillColor=#60a917;strokeColor=#2D7600;fontFamily=JetBrainsMono Nerd Font;" parent="1" source="1LvPg4HEHRrJ_WL0kR_Z-21" target="1LvPg4HEHRrJ_WL0kR_Z-9" edge="1">
          <mxGeometry width="50" height="50" relative="1" as="geometry">
            <mxPoint x="330" y="500" as="sourcePoint" />
            <mxPoint x="380" y="450" as="targetPoint" />
          </mxGeometry>
        </mxCell>
        <mxCell id="1LvPg4HEHRrJ_WL0kR_Z-34" value="" style="endArrow=none;html=1;rounded=0;entryX=0;entryY=0;entryDx=0;entryDy=0;exitX=0;exitY=1;exitDx=0;exitDy=0;strokeWidth=4;fillColor=#60a917;strokeColor=#2D7600;fontFamily=JetBrainsMono Nerd Font;" parent="1" source="1LvPg4HEHRrJ_WL0kR_Z-22" target="1LvPg4HEHRrJ_WL0kR_Z-22" edge="1">
          <mxGeometry width="50" height="50" relative="1" as="geometry">
            <mxPoint x="450" y="370" as="sourcePoint" />
            <mxPoint x="290" y="370" as="targetPoint" />
          </mxGeometry>
        </mxCell>
        <mxCell id="1LvPg4HEHRrJ_WL0kR_Z-35" value="" style="endArrow=none;html=1;rounded=0;entryX=1;entryY=0;entryDx=0;entryDy=0;exitX=0;exitY=0;exitDx=0;exitDy=0;strokeWidth=4;fillColor=#60a917;strokeColor=#2D7600;fontFamily=JetBrainsMono Nerd Font;" parent="1" source="1LvPg4HEHRrJ_WL0kR_Z-22" target="1LvPg4HEHRrJ_WL0kR_Z-22" edge="1">
          <mxGeometry width="50" height="50" relative="1" as="geometry">
            <mxPoint x="450" y="370" as="sourcePoint" />
            <mxPoint x="450" y="330" as="targetPoint" />
          </mxGeometry>
        </mxCell>
        <mxCell id="1LvPg4HEHRrJ_WL0kR_Z-36" value="" style="endArrow=none;html=1;rounded=0;entryX=1;entryY=1;entryDx=0;entryDy=0;exitX=1;exitY=0;exitDx=0;exitDy=0;strokeWidth=4;fillColor=#60a917;strokeColor=#2D7600;fontFamily=JetBrainsMono Nerd Font;" parent="1" source="1LvPg4HEHRrJ_WL0kR_Z-10" target="1LvPg4HEHRrJ_WL0kR_Z-20" edge="1">
          <mxGeometry width="50" height="50" relative="1" as="geometry">
            <mxPoint x="450" y="330" as="sourcePoint" />
            <mxPoint x="610" y="330" as="targetPoint" />
          </mxGeometry>
        </mxCell>
        <mxCell id="1LvPg4HEHRrJ_WL0kR_Z-37" value="" style="endArrow=none;html=1;rounded=0;entryX=0;entryY=0;entryDx=0;entryDy=0;strokeWidth=4;exitX=1;exitY=0;exitDx=0;exitDy=0;fillColor=#60a917;strokeColor=#2D7600;fontFamily=JetBrainsMono Nerd Font;" parent="1" source="1LvPg4HEHRrJ_WL0kR_Z-10" target="1LvPg4HEHRrJ_WL0kR_Z-9" edge="1">
          <mxGeometry width="50" height="50" relative="1" as="geometry">
            <mxPoint x="640" y="80" as="sourcePoint" />
            <mxPoint x="610" y="330" as="targetPoint" />
          </mxGeometry>
        </mxCell>
        <mxCell id="1LvPg4HEHRrJ_WL0kR_Z-38" value="" style="rounded=0;whiteSpace=wrap;html=1;fontFamily=JetBrainsMono Nerd Font;" parent="1" vertex="1">
          <mxGeometry x="280" y="360" width="160" height="40" as="geometry" />
        </mxCell>
        <mxCell id="1LvPg4HEHRrJ_WL0kR_Z-39" value="" style="rounded=0;whiteSpace=wrap;html=1;fontFamily=JetBrainsMono Nerd Font;" parent="1" vertex="1">
          <mxGeometry x="440" y="360" width="160" height="40" as="geometry" />
        </mxCell>
        <mxCell id="1LvPg4HEHRrJ_WL0kR_Z-40" value="" style="rounded=0;whiteSpace=wrap;html=1;fontFamily=JetBrainsMono Nerd Font;" parent="1" vertex="1">
          <mxGeometry x="280" y="400" width="160" height="40" as="geometry" />
        </mxCell>
        <mxCell id="1LvPg4HEHRrJ_WL0kR_Z-41" value="" style="rounded=0;whiteSpace=wrap;html=1;fontFamily=JetBrainsMono Nerd Font;" parent="1" vertex="1">
          <mxGeometry x="440" y="400" width="160" height="40" as="geometry" />
        </mxCell>
        <mxCell id="1LvPg4HEHRrJ_WL0kR_Z-60" value="0" style="text;html=1;strokeColor=none;fillColor=none;align=center;verticalAlign=middle;whiteSpace=wrap;rounded=0;fontFamily=JetBrainsMono Nerd Font;" parent="1" vertex="1">
          <mxGeometry x="240" y="360" width="40" height="40" as="geometry" />
        </mxCell>
        <mxCell id="1LvPg4HEHRrJ_WL0kR_Z-61" value="+10" style="text;html=1;strokeColor=none;fillColor=none;align=center;verticalAlign=middle;whiteSpace=wrap;rounded=0;fontFamily=JetBrainsMono Nerd Font;" parent="1" vertex="1">
          <mxGeometry x="240" y="400" width="40" height="40" as="geometry" />
        </mxCell>
        <mxCell id="1LvPg4HEHRrJ_WL0kR_Z-62" value="[0].len (0x60)&amp;nbsp;" style="rounded=0;whiteSpace=wrap;html=1;fontFamily=JetBrainsMono Nerd Font;" parent="1" vertex="1">
          <mxGeometry x="640" y="40" width="160" height="40" as="geometry" />
        </mxCell>
        <mxCell id="1LvPg4HEHRrJ_WL0kR_Z-63" value="[0].addr" style="rounded=0;whiteSpace=wrap;html=1;fontFamily=JetBrainsMono Nerd Font;" parent="1" vertex="1">
          <mxGeometry x="640" y="80" width="160" height="40" as="geometry" />
        </mxCell>
        <mxCell id="1LvPg4HEHRrJ_WL0kR_Z-64" value="" style="endArrow=classic;html=1;rounded=0;fontFamily=JetBrainsMono Nerd Font;entryX=0;entryY=0.25;entryDx=0;entryDy=0;exitX=0;exitY=0.5;exitDx=0;exitDy=0;" parent="1" source="1LvPg4HEHRrJ_WL0kR_Z-63" target="1LvPg4HEHRrJ_WL0kR_Z-10" edge="1">
          <mxGeometry width="50" height="50" relative="1" as="geometry">
            <mxPoint x="630" y="70" as="sourcePoint" />
            <mxPoint x="440" y="98.26086956521738" as="targetPoint" />
            <Array as="points">
              <mxPoint x="620" y="100" />
              <mxPoint x="620" y="90" />
            </Array>
          </mxGeometry>
        </mxCell>
        <mxCell id="1LvPg4HEHRrJ_WL0kR_Z-65" value="[1].len (0x100)" style="rounded=0;whiteSpace=wrap;html=1;fontFamily=JetBrainsMono Nerd Font;" parent="1" vertex="1">
          <mxGeometry x="640" y="120" width="160" height="40" as="geometry" />
        </mxCell>
        <mxCell id="1LvPg4HEHRrJ_WL0kR_Z-66" value="[1].addr" style="rounded=0;whiteSpace=wrap;html=1;fontFamily=JetBrainsMono Nerd Font;" parent="1" vertex="1">
          <mxGeometry x="640" y="160" width="160" height="40" as="geometry" />
        </mxCell>
        <mxCell id="1LvPg4HEHRrJ_WL0kR_Z-67" value="" style="endArrow=classic;html=1;rounded=0;fontFamily=JetBrainsMono Nerd Font;entryX=0;entryY=0.25;entryDx=0;entryDy=0;exitX=0;exitY=0.5;exitDx=0;exitDy=0;" parent="1" source="1LvPg4HEHRrJ_WL0kR_Z-66" target="1LvPg4HEHRrJ_WL0kR_Z-39" edge="1">
          <mxGeometry width="50" height="50" relative="1" as="geometry">
            <mxPoint x="810" y="76" as="sourcePoint" />
            <mxPoint x="440" y="367.8260869565215" as="targetPoint" />
            <Array as="points">
              <mxPoint x="620" y="180" />
              <mxPoint x="620" y="370" />
            </Array>
          </mxGeometry>
        </mxCell>
        <mxCell id="1LvPg4HEHRrJ_WL0kR_Z-72" value="BBBBBBBB" style="rounded=0;whiteSpace=wrap;html=1;fontFamily=JetBrainsMono Nerd Font;" parent="1" vertex="1">
          <mxGeometry x="280" y="520" width="160" height="40" as="geometry" />
        </mxCell>
        <mxCell id="1LvPg4HEHRrJ_WL0kR_Z-73" value="0x111" style="rounded=0;whiteSpace=wrap;html=1;fontFamily=JetBrainsMono Nerd Font;fontColor=#F00000;" parent="1" vertex="1">
          <mxGeometry x="440" y="520" width="160" height="40" as="geometry" />
        </mxCell>
        <mxCell id="1LvPg4HEHRrJ_WL0kR_Z-74" value="CCCCCCCC" style="rounded=0;whiteSpace=wrap;html=1;fontFamily=JetBrainsMono Nerd Font;" parent="1" vertex="1">
          <mxGeometry x="280" y="560" width="160" height="40" as="geometry" />
        </mxCell>
        <mxCell id="1LvPg4HEHRrJ_WL0kR_Z-75" value="CCCCCCCC" style="rounded=0;whiteSpace=wrap;html=1;fontFamily=JetBrainsMono Nerd Font;" parent="1" vertex="1">
          <mxGeometry x="440" y="560" width="160" height="40" as="geometry" />
        </mxCell>
        <mxCell id="1LvPg4HEHRrJ_WL0kR_Z-76" value="CCCCCCCC" style="rounded=0;whiteSpace=wrap;html=1;fontFamily=JetBrainsMono Nerd Font;" parent="1" vertex="1">
          <mxGeometry x="280" y="600" width="160" height="40" as="geometry" />
        </mxCell>
        <mxCell id="1LvPg4HEHRrJ_WL0kR_Z-77" value="CCCCCCCC" style="rounded=0;whiteSpace=wrap;html=1;fontFamily=JetBrainsMono Nerd Font;" parent="1" vertex="1">
          <mxGeometry x="440" y="600" width="160" height="40" as="geometry" />
        </mxCell>
        <mxCell id="1LvPg4HEHRrJ_WL0kR_Z-78" value="CCCCCCCC" style="rounded=0;whiteSpace=wrap;html=1;fontFamily=JetBrainsMono Nerd Font;" parent="1" vertex="1">
          <mxGeometry x="280" y="640" width="160" height="40" as="geometry" />
        </mxCell>
        <mxCell id="1LvPg4HEHRrJ_WL0kR_Z-79" value="CCCCCCCC" style="rounded=0;whiteSpace=wrap;html=1;fontFamily=JetBrainsMono Nerd Font;" parent="1" vertex="1">
          <mxGeometry x="440" y="640" width="160" height="40" as="geometry" />
        </mxCell>
        <mxCell id="1LvPg4HEHRrJ_WL0kR_Z-80" value="CCCCCCCC" style="rounded=0;whiteSpace=wrap;html=1;fontFamily=JetBrainsMono Nerd Font;" parent="1" vertex="1">
          <mxGeometry x="280" y="680" width="160" height="40" as="geometry" />
        </mxCell>
        <mxCell id="1LvPg4HEHRrJ_WL0kR_Z-81" value="CCCCCCCC" style="rounded=0;whiteSpace=wrap;html=1;fontFamily=JetBrainsMono Nerd Font;" parent="1" vertex="1">
          <mxGeometry x="440" y="680" width="160" height="40" as="geometry" />
        </mxCell>
        <mxCell id="1LvPg4HEHRrJ_WL0kR_Z-82" value="CCCCCCCC" style="rounded=0;whiteSpace=wrap;html=1;fontFamily=JetBrainsMono Nerd Font;" parent="1" vertex="1">
          <mxGeometry x="280" y="720" width="160" height="40" as="geometry" />
        </mxCell>
        <mxCell id="1LvPg4HEHRrJ_WL0kR_Z-83" value="CCCCCCCC" style="rounded=0;whiteSpace=wrap;html=1;fontFamily=JetBrainsMono Nerd Font;" parent="1" vertex="1">
          <mxGeometry x="440" y="720" width="160" height="40" as="geometry" />
        </mxCell>
        <mxCell id="1LvPg4HEHRrJ_WL0kR_Z-84" value="CCCCCCCC" style="rounded=0;whiteSpace=wrap;html=1;fontFamily=JetBrainsMono Nerd Font;" parent="1" vertex="1">
          <mxGeometry x="280" y="760" width="160" height="40" as="geometry" />
        </mxCell>
        <mxCell id="1LvPg4HEHRrJ_WL0kR_Z-85" value="CCCCCCCC" style="rounded=0;whiteSpace=wrap;html=1;fontFamily=JetBrainsMono Nerd Font;" parent="1" vertex="1">
          <mxGeometry x="440" y="760" width="160" height="40" as="geometry" />
        </mxCell>
        <mxCell id="1LvPg4HEHRrJ_WL0kR_Z-86" value="CCCCCCCC" style="rounded=0;whiteSpace=wrap;html=1;fontFamily=JetBrainsMono Nerd Font;" parent="1" vertex="1">
          <mxGeometry x="280" y="800" width="160" height="40" as="geometry" />
        </mxCell>
        <mxCell id="1LvPg4HEHRrJ_WL0kR_Z-87" value="0x111" style="rounded=0;whiteSpace=wrap;html=1;fontFamily=JetBrainsMono Nerd Font;" parent="1" vertex="1">
          <mxGeometry x="440" y="800" width="160" height="40" as="geometry" />
        </mxCell>
        <mxCell id="1LvPg4HEHRrJ_WL0kR_Z-88" value="-80" style="text;html=1;strokeColor=none;fillColor=none;align=center;verticalAlign=middle;whiteSpace=wrap;rounded=0;fontFamily=JetBrainsMono Nerd Font;" parent="1" vertex="1">
          <mxGeometry x="240" y="520" width="40" height="40" as="geometry" />
        </mxCell>
        <mxCell id="1LvPg4HEHRrJ_WL0kR_Z-89" value="-70" style="text;html=1;strokeColor=none;fillColor=none;align=center;verticalAlign=middle;whiteSpace=wrap;rounded=0;fontFamily=JetBrainsMono Nerd Font;" parent="1" vertex="1">
          <mxGeometry x="240" y="560" width="40" height="40" as="geometry" />
        </mxCell>
        <mxCell id="1LvPg4HEHRrJ_WL0kR_Z-90" value="-60" style="text;html=1;strokeColor=none;fillColor=none;align=center;verticalAlign=middle;whiteSpace=wrap;rounded=0;fontFamily=JetBrainsMono Nerd Font;" parent="1" vertex="1">
          <mxGeometry x="240" y="600" width="40" height="40" as="geometry" />
        </mxCell>
        <mxCell id="1LvPg4HEHRrJ_WL0kR_Z-91" value="-50" style="text;html=1;strokeColor=none;fillColor=none;align=center;verticalAlign=middle;whiteSpace=wrap;rounded=0;fontFamily=JetBrainsMono Nerd Font;" parent="1" vertex="1">
          <mxGeometry x="240" y="640" width="40" height="40" as="geometry" />
        </mxCell>
        <mxCell id="1LvPg4HEHRrJ_WL0kR_Z-92" value="-40" style="text;html=1;strokeColor=none;fillColor=none;align=center;verticalAlign=middle;whiteSpace=wrap;rounded=0;fontFamily=JetBrainsMono Nerd Font;" parent="1" vertex="1">
          <mxGeometry x="240" y="680" width="40" height="40" as="geometry" />
        </mxCell>
        <mxCell id="1LvPg4HEHRrJ_WL0kR_Z-93" value="-30" style="text;html=1;strokeColor=none;fillColor=none;align=center;verticalAlign=middle;whiteSpace=wrap;rounded=0;fontFamily=JetBrainsMono Nerd Font;" parent="1" vertex="1">
          <mxGeometry x="240" y="720" width="40" height="40" as="geometry" />
        </mxCell>
        <mxCell id="1LvPg4HEHRrJ_WL0kR_Z-94" value="-20" style="text;html=1;strokeColor=none;fillColor=none;align=center;verticalAlign=middle;whiteSpace=wrap;rounded=0;fontFamily=JetBrainsMono Nerd Font;" parent="1" vertex="1">
          <mxGeometry x="240" y="760" width="40" height="40" as="geometry" />
        </mxCell>
        <mxCell id="1LvPg4HEHRrJ_WL0kR_Z-95" value="-10" style="text;html=1;strokeColor=none;fillColor=none;align=center;verticalAlign=middle;whiteSpace=wrap;rounded=0;fontFamily=JetBrainsMono Nerd Font;" parent="1" vertex="1">
          <mxGeometry x="240" y="800" width="40" height="40" as="geometry" />
        </mxCell>
        <mxCell id="1LvPg4HEHRrJ_WL0kR_Z-96" value="" style="endArrow=none;html=1;rounded=0;entryX=0;entryY=0;entryDx=0;entryDy=0;exitX=0;exitY=1;exitDx=0;exitDy=0;strokeWidth=4;fillColor=#60a917;strokeColor=#2D7600;fontFamily=JetBrainsMono Nerd Font;" parent="1" source="1LvPg4HEHRrJ_WL0kR_Z-86" target="1LvPg4HEHRrJ_WL0kR_Z-74" edge="1">
          <mxGeometry width="50" height="50" relative="1" as="geometry">
            <mxPoint x="330" y="980" as="sourcePoint" />
            <mxPoint x="380" y="930" as="targetPoint" />
          </mxGeometry>
        </mxCell>
        <mxCell id="1LvPg4HEHRrJ_WL0kR_Z-98" value="" style="endArrow=none;html=1;rounded=0;entryX=0;entryY=0;entryDx=0;entryDy=0;exitX=0;exitY=1;exitDx=0;exitDy=0;strokeWidth=4;fillColor=#60a917;strokeColor=#2D7600;fontFamily=JetBrainsMono Nerd Font;" parent="1" source="1LvPg4HEHRrJ_WL0kR_Z-87" target="1LvPg4HEHRrJ_WL0kR_Z-87" edge="1">
          <mxGeometry width="50" height="50" relative="1" as="geometry">
            <mxPoint x="450" y="850" as="sourcePoint" />
            <mxPoint x="290" y="850" as="targetPoint" />
          </mxGeometry>
        </mxCell>
        <mxCell id="1LvPg4HEHRrJ_WL0kR_Z-99" value="" style="endArrow=none;html=1;rounded=0;entryX=1;entryY=0;entryDx=0;entryDy=0;exitX=0;exitY=0;exitDx=0;exitDy=0;strokeWidth=4;fillColor=#60a917;strokeColor=#2D7600;fontFamily=JetBrainsMono Nerd Font;" parent="1" source="1LvPg4HEHRrJ_WL0kR_Z-87" target="1LvPg4HEHRrJ_WL0kR_Z-87" edge="1">
          <mxGeometry width="50" height="50" relative="1" as="geometry">
            <mxPoint x="450" y="850" as="sourcePoint" />
            <mxPoint x="450" y="810" as="targetPoint" />
          </mxGeometry>
        </mxCell>
        <mxCell id="1LvPg4HEHRrJ_WL0kR_Z-100" value="" style="endArrow=none;html=1;rounded=0;entryX=1;entryY=1;entryDx=0;entryDy=0;exitX=1;exitY=0;exitDx=0;exitDy=0;strokeWidth=4;fillColor=#60a917;strokeColor=#2D7600;fontFamily=JetBrainsMono Nerd Font;" parent="1" source="1LvPg4HEHRrJ_WL0kR_Z-75" target="1LvPg4HEHRrJ_WL0kR_Z-85" edge="1">
          <mxGeometry width="50" height="50" relative="1" as="geometry">
            <mxPoint x="450" y="810" as="sourcePoint" />
            <mxPoint x="610" y="810" as="targetPoint" />
          </mxGeometry>
        </mxCell>
        <mxCell id="1LvPg4HEHRrJ_WL0kR_Z-101" value="" style="endArrow=none;html=1;rounded=0;entryX=0;entryY=0;entryDx=0;entryDy=0;strokeWidth=4;exitX=1;exitY=0;exitDx=0;exitDy=0;fillColor=#60a917;strokeColor=#2D7600;fontFamily=JetBrainsMono Nerd Font;" parent="1" source="1LvPg4HEHRrJ_WL0kR_Z-75" target="1LvPg4HEHRrJ_WL0kR_Z-74" edge="1">
          <mxGeometry width="50" height="50" relative="1" as="geometry">
            <mxPoint x="640" y="560" as="sourcePoint" />
            <mxPoint x="610" y="810" as="targetPoint" />
          </mxGeometry>
        </mxCell>
        <mxCell id="1LvPg4HEHRrJ_WL0kR_Z-102" value="AAAAAAAA" style="rounded=0;whiteSpace=wrap;html=1;fontFamily=JetBrainsMono Nerd Font;" parent="1" vertex="1">
          <mxGeometry x="280" y="840" width="160" height="40" as="geometry" />
        </mxCell>
        <mxCell id="1LvPg4HEHRrJ_WL0kR_Z-103" value="AAAAAAAA" style="rounded=0;whiteSpace=wrap;html=1;fontFamily=JetBrainsMono Nerd Font;" parent="1" vertex="1">
          <mxGeometry x="440" y="840" width="160" height="40" as="geometry" />
        </mxCell>
        <mxCell id="1LvPg4HEHRrJ_WL0kR_Z-104" value="AAAAAAAA" style="rounded=0;whiteSpace=wrap;html=1;fontFamily=JetBrainsMono Nerd Font;" parent="1" vertex="1">
          <mxGeometry x="280" y="880" width="160" height="40" as="geometry" />
        </mxCell>
        <mxCell id="1LvPg4HEHRrJ_WL0kR_Z-105" value="AAAAAAAA ..." style="rounded=0;whiteSpace=wrap;html=1;fontFamily=JetBrainsMono Nerd Font;" parent="1" vertex="1">
          <mxGeometry x="440" y="880" width="160" height="40" as="geometry" />
        </mxCell>
        <mxCell id="1LvPg4HEHRrJ_WL0kR_Z-106" value="0" style="text;html=1;strokeColor=none;fillColor=none;align=center;verticalAlign=middle;whiteSpace=wrap;rounded=0;fontFamily=JetBrainsMono Nerd Font;" parent="1" vertex="1">
          <mxGeometry x="240" y="840" width="40" height="40" as="geometry" />
        </mxCell>
        <mxCell id="1LvPg4HEHRrJ_WL0kR_Z-107" value="+10" style="text;html=1;strokeColor=none;fillColor=none;align=center;verticalAlign=middle;whiteSpace=wrap;rounded=0;fontFamily=JetBrainsMono Nerd Font;" parent="1" vertex="1">
          <mxGeometry x="240" y="880" width="40" height="40" as="geometry" />
        </mxCell>
        <mxCell id="1LvPg4HEHRrJ_WL0kR_Z-108" value="[0].len (0x60)&amp;nbsp;" style="rounded=0;whiteSpace=wrap;html=1;fontFamily=JetBrainsMono Nerd Font;" parent="1" vertex="1">
          <mxGeometry x="640" y="520" width="160" height="40" as="geometry" />
        </mxCell>
        <mxCell id="1LvPg4HEHRrJ_WL0kR_Z-109" value="[0].addr" style="rounded=0;whiteSpace=wrap;html=1;fontFamily=JetBrainsMono Nerd Font;" parent="1" vertex="1">
          <mxGeometry x="640" y="560" width="160" height="40" as="geometry" />
        </mxCell>
        <mxCell id="1LvPg4HEHRrJ_WL0kR_Z-110" value="" style="endArrow=classic;html=1;rounded=0;fontFamily=JetBrainsMono Nerd Font;entryX=0;entryY=0.25;entryDx=0;entryDy=0;exitX=0;exitY=0.5;exitDx=0;exitDy=0;" parent="1" source="1LvPg4HEHRrJ_WL0kR_Z-109" target="1LvPg4HEHRrJ_WL0kR_Z-75" edge="1">
          <mxGeometry width="50" height="50" relative="1" as="geometry">
            <mxPoint x="550" y="630" as="sourcePoint" />
            <mxPoint x="660" y="640" as="targetPoint" />
            <Array as="points">
              <mxPoint x="620" y="580" />
              <mxPoint x="620" y="570" />
            </Array>
          </mxGeometry>
        </mxCell>
        <mxCell id="1LvPg4HEHRrJ_WL0kR_Z-111" value="[1].len (0x100)" style="rounded=0;whiteSpace=wrap;html=1;fontFamily=JetBrainsMono Nerd Font;" parent="1" vertex="1">
          <mxGeometry x="640" y="600" width="160" height="40" as="geometry" />
        </mxCell>
        <mxCell id="1LvPg4HEHRrJ_WL0kR_Z-112" value="[1].addr" style="rounded=0;whiteSpace=wrap;html=1;fontFamily=JetBrainsMono Nerd Font;" parent="1" vertex="1">
          <mxGeometry x="640" y="640" width="160" height="40" as="geometry" />
        </mxCell>
        <mxCell id="1LvPg4HEHRrJ_WL0kR_Z-113" value="" style="endArrow=classic;html=1;rounded=0;fontFamily=JetBrainsMono Nerd Font;entryX=0;entryY=0.25;entryDx=0;entryDy=0;exitX=0;exitY=0.5;exitDx=0;exitDy=0;" parent="1" source="1LvPg4HEHRrJ_WL0kR_Z-112" target="1LvPg4HEHRrJ_WL0kR_Z-103" edge="1">
          <mxGeometry width="50" height="50" relative="1" as="geometry">
            <mxPoint x="810" y="556" as="sourcePoint" />
            <mxPoint x="440" y="847.8260869565217" as="targetPoint" />
            <Array as="points">
              <mxPoint x="620" y="660" />
              <mxPoint x="620" y="850" />
            </Array>
          </mxGeometry>
        </mxCell>
        <mxCell id="1LvPg4HEHRrJ_WL0kR_Z-115" value="malloc(0, 0x60)&lt;br&gt;malloc(1, 0x100)" style="text;html=1;strokeColor=none;fillColor=none;align=left;verticalAlign=top;whiteSpace=wrap;rounded=0;fontFamily=JetBrainsMono Nerd Font;" parent="1" vertex="1">
          <mxGeometry x="40" y="40" width="160" height="40" as="geometry" />
        </mxCell>
        <mxCell id="1LvPg4HEHRrJ_WL0kR_Z-116" value="hack(1, (&lt;br&gt;&amp;nbsp; &amp;nbsp; b&#39;A&#39;*0x80&lt;br&gt;&amp;nbsp; &amp;nbsp; + b&#39;B&#39;*0x8&lt;br&gt;&amp;nbsp; &amp;nbsp; + p64(0x111)&lt;br&gt;&amp;nbsp; &amp;nbsp; + b&#39;C&#39;*(0x70-0x8)&lt;br&gt;&amp;nbsp; &amp;nbsp; +p64(0x111)&lt;br&gt;))" style="text;html=1;strokeColor=none;fillColor=none;align=left;verticalAlign=top;whiteSpace=wrap;rounded=0;fontFamily=JetBrainsMono Nerd Font;" parent="1" vertex="1">
          <mxGeometry x="40" y="520" width="160" height="120" as="geometry" />
        </mxCell>
        <mxCell id="1LvPg4HEHRrJ_WL0kR_Z-119" value="BBBBBBBB" style="rounded=0;whiteSpace=wrap;html=1;fontFamily=JetBrainsMono Nerd Font;" parent="1" vertex="1">
          <mxGeometry x="280" y="1000" width="160" height="40" as="geometry" />
        </mxCell>
        <mxCell id="1LvPg4HEHRrJ_WL0kR_Z-120" value="0x111" style="rounded=0;whiteSpace=wrap;html=1;fontFamily=JetBrainsMono Nerd Font;fontColor=#F00000;" parent="1" vertex="1">
          <mxGeometry x="440" y="1000" width="160" height="40" as="geometry" />
        </mxCell>
        <mxCell id="1LvPg4HEHRrJ_WL0kR_Z-121" value="?" style="rounded=0;whiteSpace=wrap;html=1;fontFamily=JetBrainsMono Nerd Font;" parent="1" vertex="1">
          <mxGeometry x="280" y="1040" width="160" height="40" as="geometry" />
        </mxCell>
        <mxCell id="1LvPg4HEHRrJ_WL0kR_Z-122" value="?" style="rounded=0;whiteSpace=wrap;html=1;fontFamily=JetBrainsMono Nerd Font;" parent="1" vertex="1">
          <mxGeometry x="440" y="1040" width="160" height="40" as="geometry" />
        </mxCell>
        <mxCell id="1LvPg4HEHRrJ_WL0kR_Z-123" value="CCCCCCCC" style="rounded=0;whiteSpace=wrap;html=1;fontFamily=JetBrainsMono Nerd Font;" parent="1" vertex="1">
          <mxGeometry x="280" y="1080" width="160" height="40" as="geometry" />
        </mxCell>
        <mxCell id="1LvPg4HEHRrJ_WL0kR_Z-124" value="CCCCCCCC" style="rounded=0;whiteSpace=wrap;html=1;fontFamily=JetBrainsMono Nerd Font;" parent="1" vertex="1">
          <mxGeometry x="440" y="1080" width="160" height="40" as="geometry" />
        </mxCell>
        <mxCell id="1LvPg4HEHRrJ_WL0kR_Z-133" value="CCCCCCCC" style="rounded=0;whiteSpace=wrap;html=1;fontFamily=JetBrainsMono Nerd Font;" parent="1" vertex="1">
          <mxGeometry x="280" y="1160" width="160" height="40" as="geometry" />
        </mxCell>
        <mxCell id="1LvPg4HEHRrJ_WL0kR_Z-134" value="0x111" style="rounded=0;whiteSpace=wrap;html=1;fontFamily=JetBrainsMono Nerd Font;" parent="1" vertex="1">
          <mxGeometry x="440" y="1160" width="160" height="40" as="geometry" />
        </mxCell>
        <mxCell id="1LvPg4HEHRrJ_WL0kR_Z-135" value="-80" style="text;html=1;strokeColor=none;fillColor=none;align=center;verticalAlign=middle;whiteSpace=wrap;rounded=0;fontFamily=JetBrainsMono Nerd Font;" parent="1" vertex="1">
          <mxGeometry x="240" y="1000" width="40" height="40" as="geometry" />
        </mxCell>
        <mxCell id="1LvPg4HEHRrJ_WL0kR_Z-136" value="-70" style="text;html=1;strokeColor=none;fillColor=none;align=center;verticalAlign=middle;whiteSpace=wrap;rounded=0;fontFamily=JetBrainsMono Nerd Font;" parent="1" vertex="1">
          <mxGeometry x="240" y="1040" width="40" height="40" as="geometry" />
        </mxCell>
        <mxCell id="1LvPg4HEHRrJ_WL0kR_Z-137" value="-60" style="text;html=1;strokeColor=none;fillColor=none;align=center;verticalAlign=middle;whiteSpace=wrap;rounded=0;fontFamily=JetBrainsMono Nerd Font;" parent="1" vertex="1">
          <mxGeometry x="240" y="1080" width="40" height="40" as="geometry" />
        </mxCell>
        <mxCell id="1LvPg4HEHRrJ_WL0kR_Z-138" value="..." style="text;html=1;strokeColor=none;fillColor=none;align=center;verticalAlign=middle;whiteSpace=wrap;rounded=0;fontFamily=JetBrainsMono Nerd Font;" parent="1" vertex="1">
          <mxGeometry x="280" y="1120" width="320" height="40" as="geometry" />
        </mxCell>
        <mxCell id="1LvPg4HEHRrJ_WL0kR_Z-142" value="-10" style="text;html=1;strokeColor=none;fillColor=none;align=center;verticalAlign=middle;whiteSpace=wrap;rounded=0;fontFamily=JetBrainsMono Nerd Font;" parent="1" vertex="1">
          <mxGeometry x="240" y="1160" width="40" height="40" as="geometry" />
        </mxCell>
        <mxCell id="1LvPg4HEHRrJ_WL0kR_Z-148" value="" style="endArrow=none;html=1;rounded=0;entryX=0;entryY=0;entryDx=0;entryDy=0;strokeWidth=4;exitX=1;exitY=0;exitDx=0;exitDy=0;fillColor=#60a917;strokeColor=#2D7600;fontFamily=JetBrainsMono Nerd Font;" parent="1" source="1LvPg4HEHRrJ_WL0kR_Z-122" target="1LvPg4HEHRrJ_WL0kR_Z-121" edge="1">
          <mxGeometry width="50" height="50" relative="1" as="geometry">
            <mxPoint x="640" y="1040" as="sourcePoint" />
            <mxPoint x="610" y="1290" as="targetPoint" />
          </mxGeometry>
        </mxCell>
        <mxCell id="1LvPg4HEHRrJ_WL0kR_Z-149" value="AAAAAAAA" style="rounded=0;whiteSpace=wrap;html=1;fontFamily=JetBrainsMono Nerd Font;" parent="1" vertex="1">
          <mxGeometry x="280" y="1200" width="160" height="40" as="geometry" />
        </mxCell>
        <mxCell id="1LvPg4HEHRrJ_WL0kR_Z-150" value="AAAAAAAA" style="rounded=0;whiteSpace=wrap;html=1;fontFamily=JetBrainsMono Nerd Font;" parent="1" vertex="1">
          <mxGeometry x="440" y="1200" width="160" height="40" as="geometry" />
        </mxCell>
        <mxCell id="1LvPg4HEHRrJ_WL0kR_Z-151" value="AAAAAAAA" style="rounded=0;whiteSpace=wrap;html=1;fontFamily=JetBrainsMono Nerd Font;" parent="1" vertex="1">
          <mxGeometry x="280" y="1240" width="160" height="40" as="geometry" />
        </mxCell>
        <mxCell id="1LvPg4HEHRrJ_WL0kR_Z-152" value="AAAAAAAA ..." style="rounded=0;whiteSpace=wrap;html=1;fontFamily=JetBrainsMono Nerd Font;" parent="1" vertex="1">
          <mxGeometry x="440" y="1240" width="160" height="40" as="geometry" />
        </mxCell>
        <mxCell id="1LvPg4HEHRrJ_WL0kR_Z-153" value="0" style="text;html=1;strokeColor=none;fillColor=none;align=center;verticalAlign=middle;whiteSpace=wrap;rounded=0;fontFamily=JetBrainsMono Nerd Font;" parent="1" vertex="1">
          <mxGeometry x="240" y="1200" width="40" height="40" as="geometry" />
        </mxCell>
        <mxCell id="1LvPg4HEHRrJ_WL0kR_Z-154" value="+10" style="text;html=1;strokeColor=none;fillColor=none;align=center;verticalAlign=middle;whiteSpace=wrap;rounded=0;fontFamily=JetBrainsMono Nerd Font;" parent="1" vertex="1">
          <mxGeometry x="240" y="1240" width="40" height="40" as="geometry" />
        </mxCell>
        <mxCell id="1LvPg4HEHRrJ_WL0kR_Z-155" value="[0].len (0x100)" style="rounded=0;whiteSpace=wrap;html=1;fontFamily=JetBrainsMono Nerd Font;" parent="1" vertex="1">
          <mxGeometry x="640" y="1000" width="160" height="40" as="geometry" />
        </mxCell>
        <mxCell id="1LvPg4HEHRrJ_WL0kR_Z-156" value="[0].addr" style="rounded=0;whiteSpace=wrap;html=1;fontFamily=JetBrainsMono Nerd Font;" parent="1" vertex="1">
          <mxGeometry x="640" y="1040" width="160" height="40" as="geometry" />
        </mxCell>
        <mxCell id="1LvPg4HEHRrJ_WL0kR_Z-158" value="[1].len (0x100)" style="rounded=0;whiteSpace=wrap;html=1;fontFamily=JetBrainsMono Nerd Font;" parent="1" vertex="1">
          <mxGeometry x="640" y="1080" width="160" height="40" as="geometry" />
        </mxCell>
        <mxCell id="1LvPg4HEHRrJ_WL0kR_Z-159" value="[1].addr" style="rounded=0;whiteSpace=wrap;html=1;fontFamily=JetBrainsMono Nerd Font;" parent="1" vertex="1">
          <mxGeometry x="640" y="1120" width="160" height="40" as="geometry" />
        </mxCell>
        <mxCell id="1LvPg4HEHRrJ_WL0kR_Z-161" value="free(0)&lt;br&gt;malloc(0, 0x100)" style="text;html=1;strokeColor=none;fillColor=none;align=left;verticalAlign=top;whiteSpace=wrap;rounded=0;fontFamily=JetBrainsMono Nerd Font;" parent="1" vertex="1">
          <mxGeometry x="40" y="1000" width="160" height="40" as="geometry" />
        </mxCell>
        <mxCell id="1LvPg4HEHRrJ_WL0kR_Z-97" value="" style="endArrow=none;html=1;rounded=0;entryX=0;entryY=1;entryDx=0;entryDy=0;exitX=1;exitY=1;exitDx=0;exitDy=0;strokeWidth=4;fillColor=#60a917;strokeColor=#2D7600;fontFamily=JetBrainsMono Nerd Font;" parent="1" source="1LvPg4HEHRrJ_WL0kR_Z-86" target="1LvPg4HEHRrJ_WL0kR_Z-86" edge="1">
          <mxGeometry width="50" height="50" relative="1" as="geometry">
            <mxPoint x="290" y="850" as="sourcePoint" />
            <mxPoint x="290" y="570" as="targetPoint" />
          </mxGeometry>
        </mxCell>
        <mxCell id="1LvPg4HEHRrJ_WL0kR_Z-143" value="" style="endArrow=none;html=1;rounded=0;entryX=0;entryY=0;entryDx=0;entryDy=0;exitX=0;exitY=1;exitDx=0;exitDy=0;strokeWidth=4;fillColor=#60a917;strokeColor=#2D7600;fontFamily=JetBrainsMono Nerd Font;" parent="1" source="1LvPg4HEHRrJ_WL0kR_Z-151" target="1LvPg4HEHRrJ_WL0kR_Z-121" edge="1">
          <mxGeometry width="50" height="50" relative="1" as="geometry">
            <mxPoint x="330" y="1460" as="sourcePoint" />
            <mxPoint x="380" y="1410" as="targetPoint" />
          </mxGeometry>
        </mxCell>
        <mxCell id="1LvPg4HEHRrJ_WL0kR_Z-147" value="" style="endArrow=none;html=1;rounded=0;entryX=1;entryY=1;entryDx=0;entryDy=0;exitX=1;exitY=0;exitDx=0;exitDy=0;strokeWidth=4;fillColor=#60a917;strokeColor=#2D7600;fontFamily=JetBrainsMono Nerd Font;" parent="1" source="1LvPg4HEHRrJ_WL0kR_Z-122" target="1LvPg4HEHRrJ_WL0kR_Z-152" edge="1">
          <mxGeometry width="50" height="50" relative="1" as="geometry">
            <mxPoint x="450" y="1290" as="sourcePoint" />
            <mxPoint x="610" y="1290" as="targetPoint" />
          </mxGeometry>
        </mxCell>
        <mxCell id="1LvPg4HEHRrJ_WL0kR_Z-160" value="" style="endArrow=classic;html=1;rounded=0;fontFamily=JetBrainsMono Nerd Font;exitX=0;exitY=0.5;exitDx=0;exitDy=0;entryX=0;entryY=0.25;entryDx=0;entryDy=0;" parent="1" source="1LvPg4HEHRrJ_WL0kR_Z-159" target="1LvPg4HEHRrJ_WL0kR_Z-150" edge="1">
          <mxGeometry width="50" height="50" relative="1" as="geometry">
            <mxPoint x="810" y="1036" as="sourcePoint" />
            <mxPoint x="450" y="1064" as="targetPoint" />
            <Array as="points">
              <mxPoint x="620" y="1140" />
              <mxPoint x="620" y="1210" />
            </Array>
          </mxGeometry>
        </mxCell>
        <mxCell id="1LvPg4HEHRrJ_WL0kR_Z-157" value="" style="endArrow=classic;html=1;rounded=0;fontFamily=JetBrainsMono Nerd Font;exitX=0;exitY=0.5;exitDx=0;exitDy=0;entryX=0;entryY=0.25;entryDx=0;entryDy=0;" parent="1" source="1LvPg4HEHRrJ_WL0kR_Z-156" target="1LvPg4HEHRrJ_WL0kR_Z-122" edge="1">
          <mxGeometry width="50" height="50" relative="1" as="geometry">
            <mxPoint x="550" y="1110" as="sourcePoint" />
            <mxPoint x="600" y="1060" as="targetPoint" />
            <Array as="points">
              <mxPoint x="620" y="1060" />
              <mxPoint x="620" y="1050" />
            </Array>
          </mxGeometry>
        </mxCell>
        <mxCell id="1LvPg4HEHRrJ_WL0kR_Z-163" value="BBBBBBBB" style="rounded=0;whiteSpace=wrap;html=1;fontFamily=JetBrainsMono Nerd Font;" parent="1" vertex="1">
          <mxGeometry x="280" y="1360" width="160" height="40" as="geometry" />
        </mxCell>
        <mxCell id="1LvPg4HEHRrJ_WL0kR_Z-164" value="0x111" style="rounded=0;whiteSpace=wrap;html=1;fontFamily=JetBrainsMono Nerd Font;fontColor=#F00000;" parent="1" vertex="1">
          <mxGeometry x="440" y="1360" width="160" height="40" as="geometry" />
        </mxCell>
        <mxCell id="1LvPg4HEHRrJ_WL0kR_Z-165" value="?" style="rounded=0;whiteSpace=wrap;html=1;fontFamily=JetBrainsMono Nerd Font;" parent="1" vertex="1">
          <mxGeometry x="280" y="1400" width="160" height="40" as="geometry" />
        </mxCell>
        <mxCell id="1LvPg4HEHRrJ_WL0kR_Z-166" value="?" style="rounded=0;whiteSpace=wrap;html=1;fontFamily=JetBrainsMono Nerd Font;" parent="1" vertex="1">
          <mxGeometry x="440" y="1400" width="160" height="40" as="geometry" />
        </mxCell>
        <mxCell id="1LvPg4HEHRrJ_WL0kR_Z-167" value="CCCCCCCC" style="rounded=0;whiteSpace=wrap;html=1;fontFamily=JetBrainsMono Nerd Font;" parent="1" vertex="1">
          <mxGeometry x="280" y="1440" width="160" height="40" as="geometry" />
        </mxCell>
        <mxCell id="1LvPg4HEHRrJ_WL0kR_Z-168" value="CCCCCCCC" style="rounded=0;whiteSpace=wrap;html=1;fontFamily=JetBrainsMono Nerd Font;" parent="1" vertex="1">
          <mxGeometry x="440" y="1440" width="160" height="40" as="geometry" />
        </mxCell>
        <mxCell id="1LvPg4HEHRrJ_WL0kR_Z-177" value="CCCCCCCC" style="rounded=0;whiteSpace=wrap;html=1;fontFamily=JetBrainsMono Nerd Font;" parent="1" vertex="1">
          <mxGeometry x="280" y="1520" width="160" height="40" as="geometry" />
        </mxCell>
        <mxCell id="1LvPg4HEHRrJ_WL0kR_Z-178" value="0x111" style="rounded=0;whiteSpace=wrap;html=1;fontFamily=JetBrainsMono Nerd Font;" parent="1" vertex="1">
          <mxGeometry x="440" y="1520" width="160" height="40" as="geometry" />
        </mxCell>
        <mxCell id="1LvPg4HEHRrJ_WL0kR_Z-179" value="-80" style="text;html=1;strokeColor=none;fillColor=none;align=center;verticalAlign=middle;whiteSpace=wrap;rounded=0;fontFamily=JetBrainsMono Nerd Font;" parent="1" vertex="1">
          <mxGeometry x="240" y="1360" width="40" height="40" as="geometry" />
        </mxCell>
        <mxCell id="1LvPg4HEHRrJ_WL0kR_Z-180" value="-70" style="text;html=1;strokeColor=none;fillColor=none;align=center;verticalAlign=middle;whiteSpace=wrap;rounded=0;fontFamily=JetBrainsMono Nerd Font;" parent="1" vertex="1">
          <mxGeometry x="240" y="1400" width="40" height="40" as="geometry" />
        </mxCell>
        <mxCell id="1LvPg4HEHRrJ_WL0kR_Z-181" value="-60" style="text;html=1;strokeColor=none;fillColor=none;align=center;verticalAlign=middle;whiteSpace=wrap;rounded=0;fontFamily=JetBrainsMono Nerd Font;" parent="1" vertex="1">
          <mxGeometry x="240" y="1440" width="40" height="40" as="geometry" />
        </mxCell>
        <mxCell id="1LvPg4HEHRrJ_WL0kR_Z-182" value="..." style="text;html=1;strokeColor=none;fillColor=none;align=center;verticalAlign=middle;whiteSpace=wrap;rounded=0;fontFamily=JetBrainsMono Nerd Font;" parent="1" vertex="1">
          <mxGeometry x="280" y="1480" width="320" height="40" as="geometry" />
        </mxCell>
        <mxCell id="1LvPg4HEHRrJ_WL0kR_Z-186" value="-10" style="text;html=1;strokeColor=none;fillColor=none;align=center;verticalAlign=middle;whiteSpace=wrap;rounded=0;fontFamily=JetBrainsMono Nerd Font;" parent="1" vertex="1">
          <mxGeometry x="240" y="1520" width="40" height="40" as="geometry" />
        </mxCell>
        <mxCell id="1LvPg4HEHRrJ_WL0kR_Z-187" value="" style="endArrow=none;html=1;rounded=0;entryX=0;entryY=0;entryDx=0;entryDy=0;strokeWidth=4;exitX=1;exitY=0;exitDx=0;exitDy=0;fillColor=#60a917;strokeColor=#2D7600;fontFamily=JetBrainsMono Nerd Font;" parent="1" source="1LvPg4HEHRrJ_WL0kR_Z-166" target="1LvPg4HEHRrJ_WL0kR_Z-165" edge="1">
          <mxGeometry width="50" height="50" relative="1" as="geometry">
            <mxPoint x="640" y="1400" as="sourcePoint" />
            <mxPoint x="610" y="1650" as="targetPoint" />
          </mxGeometry>
        </mxCell>
        <mxCell id="1LvPg4HEHRrJ_WL0kR_Z-188" value="fd" style="rounded=0;whiteSpace=wrap;html=1;fontFamily=JetBrainsMono Nerd Font;" parent="1" vertex="1">
          <mxGeometry x="280" y="1560" width="160" height="40" as="geometry" />
        </mxCell>
        <mxCell id="1LvPg4HEHRrJ_WL0kR_Z-189" value="bk" style="rounded=0;whiteSpace=wrap;html=1;fontFamily=JetBrainsMono Nerd Font;" parent="1" vertex="1">
          <mxGeometry x="440" y="1560" width="160" height="40" as="geometry" />
        </mxCell>
        <mxCell id="1LvPg4HEHRrJ_WL0kR_Z-190" value="AAAAAAAA" style="rounded=0;whiteSpace=wrap;html=1;fontFamily=JetBrainsMono Nerd Font;" parent="1" vertex="1">
          <mxGeometry x="280" y="1600" width="160" height="40" as="geometry" />
        </mxCell>
        <mxCell id="1LvPg4HEHRrJ_WL0kR_Z-191" value="AAAAAAAA" style="rounded=0;whiteSpace=wrap;html=1;fontFamily=JetBrainsMono Nerd Font;" parent="1" vertex="1">
          <mxGeometry x="440" y="1600" width="160" height="40" as="geometry" />
        </mxCell>
        <mxCell id="1LvPg4HEHRrJ_WL0kR_Z-192" value="0" style="text;html=1;strokeColor=none;fillColor=none;align=center;verticalAlign=middle;whiteSpace=wrap;rounded=0;fontFamily=JetBrainsMono Nerd Font;" parent="1" vertex="1">
          <mxGeometry x="240" y="1560" width="40" height="40" as="geometry" />
        </mxCell>
        <mxCell id="1LvPg4HEHRrJ_WL0kR_Z-193" value="+10" style="text;html=1;strokeColor=none;fillColor=none;align=center;verticalAlign=middle;whiteSpace=wrap;rounded=0;fontFamily=JetBrainsMono Nerd Font;" parent="1" vertex="1">
          <mxGeometry x="240" y="1600" width="40" height="40" as="geometry" />
        </mxCell>
        <mxCell id="1LvPg4HEHRrJ_WL0kR_Z-194" value="[0].len (0x100)" style="rounded=0;whiteSpace=wrap;html=1;fontFamily=JetBrainsMono Nerd Font;" parent="1" vertex="1">
          <mxGeometry x="640" y="1360" width="160" height="40" as="geometry" />
        </mxCell>
        <mxCell id="1LvPg4HEHRrJ_WL0kR_Z-195" value="[0].addr" style="rounded=0;whiteSpace=wrap;html=1;fontFamily=JetBrainsMono Nerd Font;" parent="1" vertex="1">
          <mxGeometry x="640" y="1400" width="160" height="40" as="geometry" />
        </mxCell>
        <mxCell id="1LvPg4HEHRrJ_WL0kR_Z-198" value="malloc(10, 0x100)&lt;br&gt;malloc(11, 0x20)&lt;br&gt;free(10)&lt;br&gt;free(1)" style="text;html=1;strokeColor=none;fillColor=none;align=left;verticalAlign=top;whiteSpace=wrap;rounded=0;fontFamily=JetBrainsMono Nerd Font;" parent="1" vertex="1">
          <mxGeometry x="40" y="1360" width="160" height="80" as="geometry" />
        </mxCell>
        <mxCell id="1LvPg4HEHRrJ_WL0kR_Z-199" value="" style="endArrow=none;html=1;rounded=0;entryX=0;entryY=0;entryDx=0;entryDy=0;exitX=0;exitY=1;exitDx=0;exitDy=0;strokeWidth=4;fillColor=#60a917;strokeColor=#2D7600;fontFamily=JetBrainsMono Nerd Font;" parent="1" source="1LvPg4HEHRrJ_WL0kR_Z-210" target="1LvPg4HEHRrJ_WL0kR_Z-165" edge="1">
          <mxGeometry width="50" height="50" relative="1" as="geometry">
            <mxPoint x="330" y="1820" as="sourcePoint" />
            <mxPoint x="380" y="1770" as="targetPoint" />
          </mxGeometry>
        </mxCell>
        <mxCell id="1LvPg4HEHRrJ_WL0kR_Z-200" value="" style="endArrow=none;html=1;rounded=0;entryX=1;entryY=1;entryDx=0;entryDy=0;exitX=1;exitY=0;exitDx=0;exitDy=0;strokeWidth=4;fillColor=#60a917;strokeColor=#2D7600;fontFamily=JetBrainsMono Nerd Font;" parent="1" source="1LvPg4HEHRrJ_WL0kR_Z-166" target="1LvPg4HEHRrJ_WL0kR_Z-209" edge="1">
          <mxGeometry width="50" height="50" relative="1" as="geometry">
            <mxPoint x="450" y="1650" as="sourcePoint" />
            <mxPoint x="610" y="1650" as="targetPoint" />
          </mxGeometry>
        </mxCell>
        <mxCell id="1LvPg4HEHRrJ_WL0kR_Z-202" value="" style="endArrow=classic;html=1;rounded=0;fontFamily=JetBrainsMono Nerd Font;entryX=0;entryY=0.25;entryDx=0;entryDy=0;exitX=0;exitY=0.5;exitDx=0;exitDy=0;" parent="1" source="1LvPg4HEHRrJ_WL0kR_Z-195" target="1LvPg4HEHRrJ_WL0kR_Z-166" edge="1">
          <mxGeometry width="50" height="50" relative="1" as="geometry">
            <mxPoint x="630" y="1390" as="sourcePoint" />
            <mxPoint x="600" y="1420" as="targetPoint" />
            <Array as="points">
              <mxPoint x="620" y="1420" />
              <mxPoint x="620" y="1410" />
            </Array>
          </mxGeometry>
        </mxCell>
        <mxCell id="1LvPg4HEHRrJ_WL0kR_Z-205" value="[11].len (0x20)&amp;nbsp;" style="rounded=0;whiteSpace=wrap;html=1;fontFamily=JetBrainsMono Nerd Font;" parent="1" vertex="1">
          <mxGeometry x="640" y="1640" width="160" height="40" as="geometry" />
        </mxCell>
        <mxCell id="1LvPg4HEHRrJ_WL0kR_Z-206" value="[11].addr" style="rounded=0;whiteSpace=wrap;html=1;fontFamily=JetBrainsMono Nerd Font;" parent="1" vertex="1">
          <mxGeometry x="640" y="1680" width="160" height="40" as="geometry" />
        </mxCell>
        <mxCell id="1LvPg4HEHRrJ_WL0kR_Z-213" value="" style="endArrow=none;html=1;rounded=0;entryX=1;entryY=0;entryDx=0;entryDy=0;exitX=0;exitY=0;exitDx=0;exitDy=0;strokeWidth=4;fillColor=#60a917;strokeColor=#2D7600;fontFamily=JetBrainsMono Nerd Font;" parent="1" source="1LvPg4HEHRrJ_WL0kR_Z-211" target="1LvPg4HEHRrJ_WL0kR_Z-211" edge="1">
          <mxGeometry width="50" height="50" relative="1" as="geometry">
            <mxPoint x="610" y="1410" as="sourcePoint" />
            <mxPoint x="610" y="1690" as="targetPoint" />
          </mxGeometry>
        </mxCell>
        <mxCell id="1LvPg4HEHRrJ_WL0kR_Z-214" value="" style="endArrow=none;html=1;rounded=0;entryX=0;entryY=1;entryDx=0;entryDy=0;exitX=0;exitY=0;exitDx=0;exitDy=0;strokeWidth=4;fillColor=#60a917;strokeColor=#2D7600;fontFamily=JetBrainsMono Nerd Font;" parent="1" source="1LvPg4HEHRrJ_WL0kR_Z-211" target="1LvPg4HEHRrJ_WL0kR_Z-211" edge="1">
          <mxGeometry width="50" height="50" relative="1" as="geometry">
            <mxPoint x="450" y="1690" as="sourcePoint" />
            <mxPoint x="610" y="1690" as="targetPoint" />
          </mxGeometry>
        </mxCell>
        <mxCell id="1LvPg4HEHRrJ_WL0kR_Z-215" value="" style="endArrow=none;html=1;rounded=0;entryX=0;entryY=1;entryDx=0;entryDy=0;exitX=0;exitY=1;exitDx=0;exitDy=0;strokeWidth=4;fillColor=#60a917;strokeColor=#2D7600;fontFamily=JetBrainsMono Nerd Font;" parent="1" source="1LvPg4HEHRrJ_WL0kR_Z-210" target="1LvPg4HEHRrJ_WL0kR_Z-211" edge="1">
          <mxGeometry width="50" height="50" relative="1" as="geometry">
            <mxPoint x="450" y="1690" as="sourcePoint" />
            <mxPoint x="450" y="1730" as="targetPoint" />
          </mxGeometry>
        </mxCell>
        <mxCell id="1LvPg4HEHRrJ_WL0kR_Z-216" value="+20" style="text;html=1;strokeColor=none;fillColor=none;align=center;verticalAlign=middle;whiteSpace=wrap;rounded=0;fontFamily=JetBrainsMono Nerd Font;" parent="1" vertex="1">
          <mxGeometry x="240" y="1640" width="40" height="40" as="geometry" />
        </mxCell>
        <mxCell id="1LvPg4HEHRrJ_WL0kR_Z-217" value="+30" style="text;html=1;strokeColor=none;fillColor=none;align=center;verticalAlign=middle;whiteSpace=wrap;rounded=0;fontFamily=JetBrainsMono Nerd Font;" parent="1" vertex="1">
          <mxGeometry x="240" y="1680" width="40" height="40" as="geometry" />
        </mxCell>
        <mxCell id="1LvPg4HEHRrJ_WL0kR_Z-218" value="" style="rounded=0;whiteSpace=wrap;html=1;fontFamily=JetBrainsMono Nerd Font;" parent="1" vertex="1">
          <mxGeometry x="280" y="1760" width="160" height="40" as="geometry" />
        </mxCell>
        <mxCell id="1LvPg4HEHRrJ_WL0kR_Z-219" value="0x111" style="rounded=0;whiteSpace=wrap;html=1;fontFamily=JetBrainsMono Nerd Font;" parent="1" vertex="1">
          <mxGeometry x="440" y="1760" width="160" height="40" as="geometry" />
        </mxCell>
        <mxCell id="1LvPg4HEHRrJ_WL0kR_Z-220" value="+100" style="text;html=1;strokeColor=none;fillColor=none;align=center;verticalAlign=middle;whiteSpace=wrap;rounded=0;fontFamily=JetBrainsMono Nerd Font;" parent="1" vertex="1">
          <mxGeometry x="240" y="1760" width="40" height="40" as="geometry" />
        </mxCell>
        <mxCell id="1LvPg4HEHRrJ_WL0kR_Z-221" value="fd" style="rounded=0;whiteSpace=wrap;html=1;fontFamily=JetBrainsMono Nerd Font;" parent="1" vertex="1">
          <mxGeometry x="280" y="1800" width="160" height="40" as="geometry" />
        </mxCell>
        <mxCell id="1LvPg4HEHRrJ_WL0kR_Z-222" value="bk" style="rounded=0;whiteSpace=wrap;html=1;fontFamily=JetBrainsMono Nerd Font;" parent="1" vertex="1">
          <mxGeometry x="440" y="1800" width="160" height="40" as="geometry" />
        </mxCell>
        <mxCell id="1LvPg4HEHRrJ_WL0kR_Z-223" value="+110" style="text;html=1;strokeColor=none;fillColor=none;align=center;verticalAlign=middle;whiteSpace=wrap;rounded=0;fontFamily=JetBrainsMono Nerd Font;" parent="1" vertex="1">
          <mxGeometry x="240" y="1800" width="40" height="40" as="geometry" />
        </mxCell>
        <mxCell id="1LvPg4HEHRrJ_WL0kR_Z-224" value="" style="endArrow=classic;html=1;rounded=0;exitX=0;exitY=0.75;exitDx=0;exitDy=0;entryX=0;entryY=0.25;entryDx=0;entryDy=0;" parent="1" source="1LvPg4HEHRrJ_WL0kR_Z-189" target="1LvPg4HEHRrJ_WL0kR_Z-222" edge="1">
          <mxGeometry width="50" height="50" relative="1" as="geometry">
            <mxPoint x="660" y="1720" as="sourcePoint" />
            <mxPoint x="710" y="1670" as="targetPoint" />
            <Array as="points">
              <mxPoint x="460" y="1590" />
              <mxPoint x="460" y="1810" />
            </Array>
          </mxGeometry>
        </mxCell>
        <mxCell id="1LvPg4HEHRrJ_WL0kR_Z-225" value="..." style="text;html=1;strokeColor=none;fillColor=none;align=center;verticalAlign=middle;whiteSpace=wrap;rounded=0;fontFamily=JetBrainsMono Nerd Font;" parent="1" vertex="1">
          <mxGeometry x="280" y="1720" width="320" height="40" as="geometry" />
        </mxCell>
        <mxCell id="1LvPg4HEHRrJ_WL0kR_Z-227" value="AAAAAAAA" style="rounded=0;whiteSpace=wrap;html=1;fontFamily=JetBrainsMono Nerd Font;" parent="1" vertex="1">
          <mxGeometry x="280" y="2200" width="160" height="40" as="geometry" />
        </mxCell>
        <mxCell id="1LvPg4HEHRrJ_WL0kR_Z-228" value="AAAAAAAA" style="rounded=0;whiteSpace=wrap;html=1;fontFamily=JetBrainsMono Nerd Font;" parent="1" vertex="1">
          <mxGeometry x="440" y="2200" width="160" height="40" as="geometry" />
        </mxCell>
        <mxCell id="1LvPg4HEHRrJ_WL0kR_Z-229" value="AAAAAAAA" style="rounded=0;whiteSpace=wrap;html=1;fontFamily=JetBrainsMono Nerd Font;" parent="1" vertex="1">
          <mxGeometry x="280" y="2240" width="160" height="40" as="geometry" />
        </mxCell>
        <mxCell id="1LvPg4HEHRrJ_WL0kR_Z-230" value="AAAAAAAA" style="rounded=0;whiteSpace=wrap;html=1;fontFamily=JetBrainsMono Nerd Font;" parent="1" vertex="1">
          <mxGeometry x="440" y="2240" width="160" height="40" as="geometry" />
        </mxCell>
        <mxCell id="1LvPg4HEHRrJ_WL0kR_Z-231" value="BBBBBBBB" style="rounded=0;whiteSpace=wrap;html=1;fontFamily=JetBrainsMono Nerd Font;" parent="1" vertex="1">
          <mxGeometry x="280" y="1920" width="160" height="40" as="geometry" />
        </mxCell>
        <mxCell id="1LvPg4HEHRrJ_WL0kR_Z-232" value="0x111" style="rounded=0;whiteSpace=wrap;html=1;fontFamily=JetBrainsMono Nerd Font;fontColor=#F00000;" parent="1" vertex="1">
          <mxGeometry x="440" y="1920" width="160" height="40" as="geometry" />
        </mxCell>
        <mxCell id="1LvPg4HEHRrJ_WL0kR_Z-233" value="DDDDDDDD" style="rounded=0;whiteSpace=wrap;html=1;fontFamily=JetBrainsMono Nerd Font;" parent="1" vertex="1">
          <mxGeometry x="280" y="1960" width="160" height="40" as="geometry" />
        </mxCell>
        <mxCell id="1LvPg4HEHRrJ_WL0kR_Z-234" value="DDDDDDDD" style="rounded=0;whiteSpace=wrap;html=1;fontFamily=JetBrainsMono Nerd Font;" parent="1" vertex="1">
          <mxGeometry x="440" y="1960" width="160" height="40" as="geometry" />
        </mxCell>
        <mxCell id="1LvPg4HEHRrJ_WL0kR_Z-235" value="DDDDDDDD" style="rounded=0;whiteSpace=wrap;html=1;fontFamily=JetBrainsMono Nerd Font;" parent="1" vertex="1">
          <mxGeometry x="280" y="2000" width="160" height="40" as="geometry" />
        </mxCell>
        <mxCell id="1LvPg4HEHRrJ_WL0kR_Z-236" value="DDDDDDDD" style="rounded=0;whiteSpace=wrap;html=1;fontFamily=JetBrainsMono Nerd Font;" parent="1" vertex="1">
          <mxGeometry x="440" y="2000" width="160" height="40" as="geometry" />
        </mxCell>
        <mxCell id="1LvPg4HEHRrJ_WL0kR_Z-237" value="DDDDDDDD" style="rounded=0;whiteSpace=wrap;html=1;fontFamily=JetBrainsMono Nerd Font;" parent="1" vertex="1">
          <mxGeometry x="280" y="2080" width="160" height="40" as="geometry" />
        </mxCell>
        <mxCell id="1LvPg4HEHRrJ_WL0kR_Z-238" value="0x111" style="rounded=0;whiteSpace=wrap;html=1;fontFamily=JetBrainsMono Nerd Font;" parent="1" vertex="1">
          <mxGeometry x="440" y="2080" width="160" height="40" as="geometry" />
        </mxCell>
        <mxCell id="1LvPg4HEHRrJ_WL0kR_Z-239" value="-80" style="text;html=1;strokeColor=none;fillColor=none;align=center;verticalAlign=middle;whiteSpace=wrap;rounded=0;fontFamily=JetBrainsMono Nerd Font;" parent="1" vertex="1">
          <mxGeometry x="240" y="1920" width="40" height="40" as="geometry" />
        </mxCell>
        <mxCell id="1LvPg4HEHRrJ_WL0kR_Z-240" value="-70" style="text;html=1;strokeColor=none;fillColor=none;align=center;verticalAlign=middle;whiteSpace=wrap;rounded=0;fontFamily=JetBrainsMono Nerd Font;" parent="1" vertex="1">
          <mxGeometry x="240" y="1960" width="40" height="40" as="geometry" />
        </mxCell>
        <mxCell id="1LvPg4HEHRrJ_WL0kR_Z-241" value="-60" style="text;html=1;strokeColor=none;fillColor=none;align=center;verticalAlign=middle;whiteSpace=wrap;rounded=0;fontFamily=JetBrainsMono Nerd Font;" parent="1" vertex="1">
          <mxGeometry x="240" y="2000" width="40" height="40" as="geometry" />
        </mxCell>
        <mxCell id="1LvPg4HEHRrJ_WL0kR_Z-242" value="..." style="text;html=1;strokeColor=none;fillColor=none;align=center;verticalAlign=middle;whiteSpace=wrap;rounded=0;fontFamily=JetBrainsMono Nerd Font;" parent="1" vertex="1">
          <mxGeometry x="280" y="2040" width="320" height="40" as="geometry" />
        </mxCell>
        <mxCell id="1LvPg4HEHRrJ_WL0kR_Z-243" value="-10" style="text;html=1;strokeColor=none;fillColor=none;align=center;verticalAlign=middle;whiteSpace=wrap;rounded=0;fontFamily=JetBrainsMono Nerd Font;" parent="1" vertex="1">
          <mxGeometry x="240" y="2080" width="40" height="40" as="geometry" />
        </mxCell>
        <mxCell id="1LvPg4HEHRrJ_WL0kR_Z-244" value="" style="endArrow=none;html=1;rounded=0;entryX=0;entryY=0;entryDx=0;entryDy=0;strokeWidth=4;exitX=1;exitY=0;exitDx=0;exitDy=0;fillColor=#60a917;strokeColor=#2D7600;fontFamily=JetBrainsMono Nerd Font;" parent="1" source="1LvPg4HEHRrJ_WL0kR_Z-234" target="1LvPg4HEHRrJ_WL0kR_Z-233" edge="1">
          <mxGeometry width="50" height="50" relative="1" as="geometry">
            <mxPoint x="640" y="1960" as="sourcePoint" />
            <mxPoint x="610" y="2210" as="targetPoint" />
          </mxGeometry>
        </mxCell>
        <mxCell id="1LvPg4HEHRrJ_WL0kR_Z-245" value="BUF+0x10*11" style="rounded=0;whiteSpace=wrap;html=1;fontFamily=JetBrainsMono Nerd Font;fontColor=#F00000;" parent="1" vertex="1">
          <mxGeometry x="280" y="2120" width="160" height="40" as="geometry" />
        </mxCell>
        <mxCell id="1LvPg4HEHRrJ_WL0kR_Z-246" value="FFFFFFF\0" style="rounded=0;whiteSpace=wrap;html=1;fontFamily=JetBrainsMono Nerd Font;" parent="1" vertex="1">
          <mxGeometry x="440" y="2120" width="160" height="40" as="geometry" />
        </mxCell>
        <mxCell id="1LvPg4HEHRrJ_WL0kR_Z-247" value="AAAAAAAA" style="rounded=0;whiteSpace=wrap;html=1;fontFamily=JetBrainsMono Nerd Font;" parent="1" vertex="1">
          <mxGeometry x="280" y="2160" width="160" height="40" as="geometry" />
        </mxCell>
        <mxCell id="1LvPg4HEHRrJ_WL0kR_Z-248" value="AAAAAAAA" style="rounded=0;whiteSpace=wrap;html=1;fontFamily=JetBrainsMono Nerd Font;" parent="1" vertex="1">
          <mxGeometry x="440" y="2160" width="160" height="40" as="geometry" />
        </mxCell>
        <mxCell id="1LvPg4HEHRrJ_WL0kR_Z-249" value="0" style="text;html=1;strokeColor=none;fillColor=none;align=center;verticalAlign=middle;whiteSpace=wrap;rounded=0;fontFamily=JetBrainsMono Nerd Font;" parent="1" vertex="1">
          <mxGeometry x="240" y="2120" width="40" height="40" as="geometry" />
        </mxCell>
        <mxCell id="1LvPg4HEHRrJ_WL0kR_Z-250" value="+10" style="text;html=1;strokeColor=none;fillColor=none;align=center;verticalAlign=middle;whiteSpace=wrap;rounded=0;fontFamily=JetBrainsMono Nerd Font;" parent="1" vertex="1">
          <mxGeometry x="240" y="2160" width="40" height="40" as="geometry" />
        </mxCell>
        <mxCell id="1LvPg4HEHRrJ_WL0kR_Z-251" value="[0].len (0x100)" style="rounded=0;whiteSpace=wrap;html=1;fontFamily=JetBrainsMono Nerd Font;" parent="1" vertex="1">
          <mxGeometry x="640" y="1920" width="160" height="40" as="geometry" />
        </mxCell>
        <mxCell id="1LvPg4HEHRrJ_WL0kR_Z-252" value="[0].addr" style="rounded=0;whiteSpace=wrap;html=1;fontFamily=JetBrainsMono Nerd Font;" parent="1" vertex="1">
          <mxGeometry x="640" y="1960" width="160" height="40" as="geometry" />
        </mxCell>
        <mxCell id="1LvPg4HEHRrJ_WL0kR_Z-255" value="" style="endArrow=none;html=1;rounded=0;entryX=0;entryY=0;entryDx=0;entryDy=0;exitX=0;exitY=1;exitDx=0;exitDy=0;strokeWidth=4;fillColor=#60a917;strokeColor=#2D7600;fontFamily=JetBrainsMono Nerd Font;" parent="1" source="1LvPg4HEHRrJ_WL0kR_Z-229" target="1LvPg4HEHRrJ_WL0kR_Z-233" edge="1">
          <mxGeometry width="50" height="50" relative="1" as="geometry">
            <mxPoint x="330" y="2380" as="sourcePoint" />
            <mxPoint x="380" y="2330" as="targetPoint" />
          </mxGeometry>
        </mxCell>
        <mxCell id="1LvPg4HEHRrJ_WL0kR_Z-256" value="" style="endArrow=none;html=1;rounded=0;entryX=1;entryY=1;entryDx=0;entryDy=0;exitX=1;exitY=0;exitDx=0;exitDy=0;strokeWidth=4;fillColor=#60a917;strokeColor=#2D7600;fontFamily=JetBrainsMono Nerd Font;" parent="1" source="1LvPg4HEHRrJ_WL0kR_Z-234" target="1LvPg4HEHRrJ_WL0kR_Z-228" edge="1">
          <mxGeometry width="50" height="50" relative="1" as="geometry">
            <mxPoint x="450" y="2210" as="sourcePoint" />
            <mxPoint x="610" y="2210" as="targetPoint" />
          </mxGeometry>
        </mxCell>
        <mxCell id="1LvPg4HEHRrJ_WL0kR_Z-258" value="" style="endArrow=classic;html=1;rounded=0;fontFamily=JetBrainsMono Nerd Font;entryX=0;entryY=0.25;entryDx=0;entryDy=0;exitX=0;exitY=0.5;exitDx=0;exitDy=0;" parent="1" source="1LvPg4HEHRrJ_WL0kR_Z-252" target="1LvPg4HEHRrJ_WL0kR_Z-234" edge="1">
          <mxGeometry width="50" height="50" relative="1" as="geometry">
            <mxPoint x="630" y="1950" as="sourcePoint" />
            <mxPoint x="600" y="1980" as="targetPoint" />
            <Array as="points">
              <mxPoint x="620" y="1980" />
              <mxPoint x="620" y="1970" />
            </Array>
          </mxGeometry>
        </mxCell>
        <mxCell id="1LvPg4HEHRrJ_WL0kR_Z-261" value="[11].len (0x20)&amp;nbsp;" style="rounded=0;whiteSpace=wrap;html=1;fontFamily=JetBrainsMono Nerd Font;" parent="1" vertex="1">
          <mxGeometry x="640" y="2200" width="160" height="40" as="geometry" />
        </mxCell>
        <mxCell id="1LvPg4HEHRrJ_WL0kR_Z-262" value="[11].addr" style="rounded=0;whiteSpace=wrap;html=1;fontFamily=JetBrainsMono Nerd Font;" parent="1" vertex="1">
          <mxGeometry x="640" y="2240" width="160" height="40" as="geometry" />
        </mxCell>
        <mxCell id="1LvPg4HEHRrJ_WL0kR_Z-263" value="" style="endArrow=none;html=1;rounded=0;entryX=1;entryY=0;entryDx=0;entryDy=0;exitX=0;exitY=0;exitDx=0;exitDy=0;strokeWidth=4;fillColor=#60a917;strokeColor=#2D7600;fontFamily=JetBrainsMono Nerd Font;" parent="1" source="1LvPg4HEHRrJ_WL0kR_Z-230" target="1LvPg4HEHRrJ_WL0kR_Z-230" edge="1">
          <mxGeometry width="50" height="50" relative="1" as="geometry">
            <mxPoint x="610" y="1970" as="sourcePoint" />
            <mxPoint x="610" y="2250" as="targetPoint" />
          </mxGeometry>
        </mxCell>
        <mxCell id="1LvPg4HEHRrJ_WL0kR_Z-264" value="" style="endArrow=none;html=1;rounded=0;entryX=0;entryY=1;entryDx=0;entryDy=0;exitX=0;exitY=0;exitDx=0;exitDy=0;strokeWidth=4;fillColor=#60a917;strokeColor=#2D7600;fontFamily=JetBrainsMono Nerd Font;" parent="1" source="1LvPg4HEHRrJ_WL0kR_Z-230" target="1LvPg4HEHRrJ_WL0kR_Z-230" edge="1">
          <mxGeometry width="50" height="50" relative="1" as="geometry">
            <mxPoint x="450" y="2250" as="sourcePoint" />
            <mxPoint x="610" y="2250" as="targetPoint" />
          </mxGeometry>
        </mxCell>
        <mxCell id="1LvPg4HEHRrJ_WL0kR_Z-266" value="+20" style="text;html=1;strokeColor=none;fillColor=none;align=center;verticalAlign=middle;whiteSpace=wrap;rounded=0;fontFamily=JetBrainsMono Nerd Font;" parent="1" vertex="1">
          <mxGeometry x="240" y="2200" width="40" height="40" as="geometry" />
        </mxCell>
        <mxCell id="1LvPg4HEHRrJ_WL0kR_Z-267" value="+30" style="text;html=1;strokeColor=none;fillColor=none;align=center;verticalAlign=middle;whiteSpace=wrap;rounded=0;fontFamily=JetBrainsMono Nerd Font;" parent="1" vertex="1">
          <mxGeometry x="240" y="2240" width="40" height="40" as="geometry" />
        </mxCell>
        <mxCell id="1LvPg4HEHRrJ_WL0kR_Z-274" value="" style="endArrow=classic;html=1;rounded=0;exitX=0;exitY=0.75;exitDx=0;exitDy=0;entryX=0;entryY=0.5;entryDx=0;entryDy=0;" parent="1" source="1LvPg4HEHRrJ_WL0kR_Z-246" target="1LvPg4HEHRrJ_WL0kR_Z-261" edge="1">
          <mxGeometry width="50" height="50" relative="1" as="geometry">
            <mxPoint x="660" y="2280" as="sourcePoint" />
            <mxPoint x="710" y="2230" as="targetPoint" />
            <Array as="points">
              <mxPoint x="460" y="2150" />
              <mxPoint x="620" y="2150" />
              <mxPoint x="620" y="2220" />
            </Array>
          </mxGeometry>
        </mxCell>
        <mxCell id="1LvPg4HEHRrJ_WL0kR_Z-277" value="edit(0, (&lt;br&gt;&amp;nbsp; &amp;nbsp; b&#39;D&#39;*(0x70-0x8)&lt;br&gt;&amp;nbsp; &amp;nbsp; + p64(0x111)&lt;br&gt;&amp;nbsp; &amp;nbsp; + p64(BUF+0x10*11)&lt;br&gt;&amp;nbsp; &amp;nbsp; + b&#39;F&#39;*(0x8-0x1)&lt;br&gt;))" style="text;html=1;strokeColor=none;fillColor=none;align=left;verticalAlign=top;whiteSpace=wrap;rounded=0;fontFamily=JetBrainsMono Nerd Font;" parent="1" vertex="1">
          <mxGeometry x="40" y="1920" width="170" height="120" as="geometry" />
        </mxCell>
        <mxCell id="1LvPg4HEHRrJ_WL0kR_Z-279" value="tcache for 0x110" style="rounded=0;whiteSpace=wrap;html=1;fontFamily=JetBrainsMono Nerd Font;" parent="1" vertex="1">
          <mxGeometry x="40" y="1560" width="160" height="40" as="geometry" />
        </mxCell>
        <mxCell id="1LvPg4HEHRrJ_WL0kR_Z-280" value="tcache for 0x110" style="rounded=0;whiteSpace=wrap;html=1;fontFamily=JetBrainsMono Nerd Font;" parent="1" vertex="1">
          <mxGeometry x="40" y="2120" width="160" height="40" as="geometry" />
        </mxCell>
        <mxCell id="1LvPg4HEHRrJ_WL0kR_Z-281" value="AAAAAAAA" style="rounded=0;whiteSpace=wrap;html=1;fontFamily=JetBrainsMono Nerd Font;" parent="1" vertex="1">
          <mxGeometry x="280" y="2640" width="160" height="40" as="geometry" />
        </mxCell>
        <mxCell id="1LvPg4HEHRrJ_WL0kR_Z-282" value="AAAAAAAA" style="rounded=0;whiteSpace=wrap;html=1;fontFamily=JetBrainsMono Nerd Font;" parent="1" vertex="1">
          <mxGeometry x="440" y="2640" width="160" height="40" as="geometry" />
        </mxCell>
        <mxCell id="1LvPg4HEHRrJ_WL0kR_Z-283" value="AAAAAAAA" style="rounded=0;whiteSpace=wrap;html=1;fontFamily=JetBrainsMono Nerd Font;" parent="1" vertex="1">
          <mxGeometry x="280" y="2680" width="160" height="40" as="geometry" />
        </mxCell>
        <mxCell id="1LvPg4HEHRrJ_WL0kR_Z-284" value="AAAAAAAA" style="rounded=0;whiteSpace=wrap;html=1;fontFamily=JetBrainsMono Nerd Font;" parent="1" vertex="1">
          <mxGeometry x="440" y="2680" width="160" height="40" as="geometry" />
        </mxCell>
        <mxCell id="1LvPg4HEHRrJ_WL0kR_Z-285" value="BBBBBBBB" style="rounded=0;whiteSpace=wrap;html=1;fontFamily=JetBrainsMono Nerd Font;" parent="1" vertex="1">
          <mxGeometry x="280" y="2360" width="160" height="40" as="geometry" />
        </mxCell>
        <mxCell id="1LvPg4HEHRrJ_WL0kR_Z-286" value="0x111" style="rounded=0;whiteSpace=wrap;html=1;fontFamily=JetBrainsMono Nerd Font;fontColor=#F00000;" parent="1" vertex="1">
          <mxGeometry x="440" y="2360" width="160" height="40" as="geometry" />
        </mxCell>
        <mxCell id="1LvPg4HEHRrJ_WL0kR_Z-287" value="DDDDDDDD" style="rounded=0;whiteSpace=wrap;html=1;fontFamily=JetBrainsMono Nerd Font;" parent="1" vertex="1">
          <mxGeometry x="280" y="2400" width="160" height="40" as="geometry" />
        </mxCell>
        <mxCell id="1LvPg4HEHRrJ_WL0kR_Z-288" value="DDDDDDDD" style="rounded=0;whiteSpace=wrap;html=1;fontFamily=JetBrainsMono Nerd Font;" parent="1" vertex="1">
          <mxGeometry x="440" y="2400" width="160" height="40" as="geometry" />
        </mxCell>
        <mxCell id="1LvPg4HEHRrJ_WL0kR_Z-289" value="DDDDDDDD" style="rounded=0;whiteSpace=wrap;html=1;fontFamily=JetBrainsMono Nerd Font;" parent="1" vertex="1">
          <mxGeometry x="280" y="2440" width="160" height="40" as="geometry" />
        </mxCell>
        <mxCell id="1LvPg4HEHRrJ_WL0kR_Z-290" value="DDDDDDDD" style="rounded=0;whiteSpace=wrap;html=1;fontFamily=JetBrainsMono Nerd Font;" parent="1" vertex="1">
          <mxGeometry x="440" y="2440" width="160" height="40" as="geometry" />
        </mxCell>
        <mxCell id="1LvPg4HEHRrJ_WL0kR_Z-291" value="DDDDDDDD" style="rounded=0;whiteSpace=wrap;html=1;fontFamily=JetBrainsMono Nerd Font;" parent="1" vertex="1">
          <mxGeometry x="280" y="2520" width="160" height="40" as="geometry" />
        </mxCell>
        <mxCell id="1LvPg4HEHRrJ_WL0kR_Z-292" value="0x111" style="rounded=0;whiteSpace=wrap;html=1;fontFamily=JetBrainsMono Nerd Font;" parent="1" vertex="1">
          <mxGeometry x="440" y="2520" width="160" height="40" as="geometry" />
        </mxCell>
        <mxCell id="1LvPg4HEHRrJ_WL0kR_Z-293" value="-80" style="text;html=1;strokeColor=none;fillColor=none;align=center;verticalAlign=middle;whiteSpace=wrap;rounded=0;fontFamily=JetBrainsMono Nerd Font;" parent="1" vertex="1">
          <mxGeometry x="240" y="2360" width="40" height="40" as="geometry" />
        </mxCell>
        <mxCell id="1LvPg4HEHRrJ_WL0kR_Z-294" value="-70" style="text;html=1;strokeColor=none;fillColor=none;align=center;verticalAlign=middle;whiteSpace=wrap;rounded=0;fontFamily=JetBrainsMono Nerd Font;" parent="1" vertex="1">
          <mxGeometry x="240" y="2400" width="40" height="40" as="geometry" />
        </mxCell>
        <mxCell id="1LvPg4HEHRrJ_WL0kR_Z-295" value="-60" style="text;html=1;strokeColor=none;fillColor=none;align=center;verticalAlign=middle;whiteSpace=wrap;rounded=0;fontFamily=JetBrainsMono Nerd Font;" parent="1" vertex="1">
          <mxGeometry x="240" y="2440" width="40" height="40" as="geometry" />
        </mxCell>
        <mxCell id="1LvPg4HEHRrJ_WL0kR_Z-296" value="..." style="text;html=1;strokeColor=none;fillColor=none;align=center;verticalAlign=middle;whiteSpace=wrap;rounded=0;fontFamily=JetBrainsMono Nerd Font;" parent="1" vertex="1">
          <mxGeometry x="280" y="2480" width="320" height="40" as="geometry" />
        </mxCell>
        <mxCell id="1LvPg4HEHRrJ_WL0kR_Z-297" value="-10" style="text;html=1;strokeColor=none;fillColor=none;align=center;verticalAlign=middle;whiteSpace=wrap;rounded=0;fontFamily=JetBrainsMono Nerd Font;" parent="1" vertex="1">
          <mxGeometry x="240" y="2520" width="40" height="40" as="geometry" />
        </mxCell>
        <mxCell id="1LvPg4HEHRrJ_WL0kR_Z-298" value="" style="endArrow=none;html=1;rounded=0;entryX=0;entryY=0;entryDx=0;entryDy=0;strokeWidth=4;exitX=1;exitY=0;exitDx=0;exitDy=0;fillColor=#60a917;strokeColor=#2D7600;fontFamily=JetBrainsMono Nerd Font;" parent="1" source="1LvPg4HEHRrJ_WL0kR_Z-288" target="1LvPg4HEHRrJ_WL0kR_Z-287" edge="1">
          <mxGeometry width="50" height="50" relative="1" as="geometry">
            <mxPoint x="640" y="2400" as="sourcePoint" />
            <mxPoint x="610" y="2650" as="targetPoint" />
          </mxGeometry>
        </mxCell>
        <mxCell id="1LvPg4HEHRrJ_WL0kR_Z-300" value="?" style="rounded=0;whiteSpace=wrap;html=1;fontFamily=JetBrainsMono Nerd Font;" parent="1" vertex="1">
          <mxGeometry x="440" y="2560" width="160" height="40" as="geometry" />
        </mxCell>
        <mxCell id="1LvPg4HEHRrJ_WL0kR_Z-301" value="AAAAAAAA" style="rounded=0;whiteSpace=wrap;html=1;fontFamily=JetBrainsMono Nerd Font;" parent="1" vertex="1">
          <mxGeometry x="280" y="2600" width="160" height="40" as="geometry" />
        </mxCell>
        <mxCell id="1LvPg4HEHRrJ_WL0kR_Z-302" value="AAAAAAAA" style="rounded=0;whiteSpace=wrap;html=1;fontFamily=JetBrainsMono Nerd Font;" parent="1" vertex="1">
          <mxGeometry x="440" y="2600" width="160" height="40" as="geometry" />
        </mxCell>
        <mxCell id="1LvPg4HEHRrJ_WL0kR_Z-303" value="0" style="text;html=1;strokeColor=none;fillColor=none;align=center;verticalAlign=middle;whiteSpace=wrap;rounded=0;fontFamily=JetBrainsMono Nerd Font;" parent="1" vertex="1">
          <mxGeometry x="240" y="2560" width="40" height="40" as="geometry" />
        </mxCell>
        <mxCell id="1LvPg4HEHRrJ_WL0kR_Z-304" value="+10" style="text;html=1;strokeColor=none;fillColor=none;align=center;verticalAlign=middle;whiteSpace=wrap;rounded=0;fontFamily=JetBrainsMono Nerd Font;" parent="1" vertex="1">
          <mxGeometry x="240" y="2600" width="40" height="40" as="geometry" />
        </mxCell>
        <mxCell id="1LvPg4HEHRrJ_WL0kR_Z-305" value="[0].len (0x100)" style="rounded=0;whiteSpace=wrap;html=1;fontFamily=JetBrainsMono Nerd Font;" parent="1" vertex="1">
          <mxGeometry x="640" y="2360" width="160" height="40" as="geometry" />
        </mxCell>
        <mxCell id="1LvPg4HEHRrJ_WL0kR_Z-306" value="[0].addr" style="rounded=0;whiteSpace=wrap;html=1;fontFamily=JetBrainsMono Nerd Font;" parent="1" vertex="1">
          <mxGeometry x="640" y="2400" width="160" height="40" as="geometry" />
        </mxCell>
        <mxCell id="1LvPg4HEHRrJ_WL0kR_Z-307" value="[1].len (0x100)" style="rounded=0;whiteSpace=wrap;html=1;fontFamily=JetBrainsMono Nerd Font;" parent="1" vertex="1">
          <mxGeometry x="640" y="2440" width="160" height="40" as="geometry" />
        </mxCell>
        <mxCell id="1LvPg4HEHRrJ_WL0kR_Z-308" value="[1].addr" style="rounded=0;whiteSpace=wrap;html=1;fontFamily=JetBrainsMono Nerd Font;" parent="1" vertex="1">
          <mxGeometry x="640" y="2480" width="160" height="40" as="geometry" />
        </mxCell>
        <mxCell id="1LvPg4HEHRrJ_WL0kR_Z-309" value="" style="endArrow=none;html=1;rounded=0;entryX=0;entryY=0;entryDx=0;entryDy=0;exitX=0;exitY=1;exitDx=0;exitDy=0;strokeWidth=4;fillColor=#60a917;strokeColor=#2D7600;fontFamily=JetBrainsMono Nerd Font;" parent="1" source="1LvPg4HEHRrJ_WL0kR_Z-283" target="1LvPg4HEHRrJ_WL0kR_Z-287" edge="1">
          <mxGeometry width="50" height="50" relative="1" as="geometry">
            <mxPoint x="330" y="2820" as="sourcePoint" />
            <mxPoint x="380" y="2770" as="targetPoint" />
          </mxGeometry>
        </mxCell>
        <mxCell id="1LvPg4HEHRrJ_WL0kR_Z-310" value="" style="endArrow=none;html=1;rounded=0;entryX=1;entryY=1;entryDx=0;entryDy=0;exitX=1;exitY=0;exitDx=0;exitDy=0;strokeWidth=4;fillColor=#60a917;strokeColor=#2D7600;fontFamily=JetBrainsMono Nerd Font;" parent="1" source="1LvPg4HEHRrJ_WL0kR_Z-288" target="1LvPg4HEHRrJ_WL0kR_Z-282" edge="1">
          <mxGeometry width="50" height="50" relative="1" as="geometry">
            <mxPoint x="450" y="2650" as="sourcePoint" />
            <mxPoint x="610" y="2650" as="targetPoint" />
          </mxGeometry>
        </mxCell>
        <mxCell id="1LvPg4HEHRrJ_WL0kR_Z-311" value="" style="endArrow=classic;html=1;rounded=0;fontFamily=JetBrainsMono Nerd Font;entryX=0;entryY=0.25;entryDx=0;entryDy=0;exitX=0;exitY=0.5;exitDx=0;exitDy=0;" parent="1" source="1LvPg4HEHRrJ_WL0kR_Z-308" target="1LvPg4HEHRrJ_WL0kR_Z-300" edge="1">
          <mxGeometry width="50" height="50" relative="1" as="geometry">
            <mxPoint x="620" y="2460" as="sourcePoint" />
            <mxPoint x="450" y="2424" as="targetPoint" />
            <Array as="points">
              <mxPoint x="620" y="2500" />
              <mxPoint x="620" y="2570" />
            </Array>
          </mxGeometry>
        </mxCell>
        <mxCell id="1LvPg4HEHRrJ_WL0kR_Z-312" value="" style="endArrow=classic;html=1;rounded=0;fontFamily=JetBrainsMono Nerd Font;entryX=0;entryY=0.25;entryDx=0;entryDy=0;exitX=0;exitY=0.5;exitDx=0;exitDy=0;" parent="1" source="1LvPg4HEHRrJ_WL0kR_Z-306" target="1LvPg4HEHRrJ_WL0kR_Z-288" edge="1">
          <mxGeometry width="50" height="50" relative="1" as="geometry">
            <mxPoint x="630" y="2390" as="sourcePoint" />
            <mxPoint x="600" y="2420" as="targetPoint" />
            <Array as="points">
              <mxPoint x="620" y="2420" />
              <mxPoint x="620" y="2410" />
            </Array>
          </mxGeometry>
        </mxCell>
        <mxCell id="1LvPg4HEHRrJ_WL0kR_Z-315" value="[11].len (0x20)&amp;nbsp;" style="rounded=0;whiteSpace=wrap;html=1;fontFamily=JetBrainsMono Nerd Font;" parent="1" vertex="1">
          <mxGeometry x="640" y="2640" width="160" height="40" as="geometry" />
        </mxCell>
        <mxCell id="1LvPg4HEHRrJ_WL0kR_Z-316" value="[11].addr" style="rounded=0;whiteSpace=wrap;html=1;fontFamily=JetBrainsMono Nerd Font;" parent="1" vertex="1">
          <mxGeometry x="640" y="2680" width="160" height="40" as="geometry" />
        </mxCell>
        <mxCell id="1LvPg4HEHRrJ_WL0kR_Z-317" value="" style="endArrow=none;html=1;rounded=0;entryX=1;entryY=0;entryDx=0;entryDy=0;exitX=0;exitY=0;exitDx=0;exitDy=0;strokeWidth=4;fillColor=#60a917;strokeColor=#2D7600;fontFamily=JetBrainsMono Nerd Font;" parent="1" source="1LvPg4HEHRrJ_WL0kR_Z-284" target="1LvPg4HEHRrJ_WL0kR_Z-284" edge="1">
          <mxGeometry width="50" height="50" relative="1" as="geometry">
            <mxPoint x="610" y="2410" as="sourcePoint" />
            <mxPoint x="610" y="2690" as="targetPoint" />
          </mxGeometry>
        </mxCell>
        <mxCell id="1LvPg4HEHRrJ_WL0kR_Z-318" value="" style="endArrow=none;html=1;rounded=0;entryX=0;entryY=1;entryDx=0;entryDy=0;exitX=0;exitY=0;exitDx=0;exitDy=0;strokeWidth=4;fillColor=#60a917;strokeColor=#2D7600;fontFamily=JetBrainsMono Nerd Font;" parent="1" source="1LvPg4HEHRrJ_WL0kR_Z-284" target="1LvPg4HEHRrJ_WL0kR_Z-284" edge="1">
          <mxGeometry width="50" height="50" relative="1" as="geometry">
            <mxPoint x="450" y="2690" as="sourcePoint" />
            <mxPoint x="610" y="2690" as="targetPoint" />
          </mxGeometry>
        </mxCell>
        <mxCell id="1LvPg4HEHRrJ_WL0kR_Z-319" value="" style="endArrow=none;html=1;rounded=0;entryX=0;entryY=1;entryDx=0;entryDy=0;exitX=0;exitY=1;exitDx=0;exitDy=0;strokeWidth=4;fillColor=#60a917;strokeColor=#2D7600;fontFamily=JetBrainsMono Nerd Font;" parent="1" source="1LvPg4HEHRrJ_WL0kR_Z-283" target="1LvPg4HEHRrJ_WL0kR_Z-284" edge="1">
          <mxGeometry width="50" height="50" relative="1" as="geometry">
            <mxPoint x="450" y="2690" as="sourcePoint" />
            <mxPoint x="450" y="2730" as="targetPoint" />
          </mxGeometry>
        </mxCell>
        <mxCell id="1LvPg4HEHRrJ_WL0kR_Z-320" value="+20" style="text;html=1;strokeColor=none;fillColor=none;align=center;verticalAlign=middle;whiteSpace=wrap;rounded=0;fontFamily=JetBrainsMono Nerd Font;" parent="1" vertex="1">
          <mxGeometry x="240" y="2640" width="40" height="40" as="geometry" />
        </mxCell>
        <mxCell id="1LvPg4HEHRrJ_WL0kR_Z-321" value="+30" style="text;html=1;strokeColor=none;fillColor=none;align=center;verticalAlign=middle;whiteSpace=wrap;rounded=0;fontFamily=JetBrainsMono Nerd Font;" parent="1" vertex="1">
          <mxGeometry x="240" y="2680" width="40" height="40" as="geometry" />
        </mxCell>
        <mxCell id="1LvPg4HEHRrJ_WL0kR_Z-328" value="" style="endArrow=classic;html=1;rounded=0;exitX=1;exitY=0.5;exitDx=0;exitDy=0;entryX=0;entryY=0.5;entryDx=0;entryDy=0;" parent="1" source="1LvPg4HEHRrJ_WL0kR_Z-330" target="1LvPg4HEHRrJ_WL0kR_Z-315" edge="1">
          <mxGeometry width="50" height="50" relative="1" as="geometry">
            <mxPoint x="660" y="2680" as="sourcePoint" />
            <mxPoint x="710" y="2630" as="targetPoint" />
            <Array as="points">
              <mxPoint x="220" y="2660" />
              <mxPoint x="220" y="2670" />
              <mxPoint x="620" y="2670" />
              <mxPoint x="620" y="2660" />
            </Array>
          </mxGeometry>
        </mxCell>
        <mxCell id="1LvPg4HEHRrJ_WL0kR_Z-330" value="tcache for 0x110" style="rounded=0;whiteSpace=wrap;html=1;fontFamily=JetBrainsMono Nerd Font;" parent="1" vertex="1">
          <mxGeometry x="40" y="2640" width="160" height="40" as="geometry" />
        </mxCell>
        <mxCell id="1LvPg4HEHRrJ_WL0kR_Z-331" value="malloc(1, 0x100)" style="text;html=1;strokeColor=none;fillColor=none;align=left;verticalAlign=top;whiteSpace=wrap;rounded=0;fontFamily=JetBrainsMono Nerd Font;" parent="1" vertex="1">
          <mxGeometry x="40" y="2360" width="160" height="40" as="geometry" />
        </mxCell>
        <mxCell id="1LvPg4HEHRrJ_WL0kR_Z-333" value="" style="endArrow=none;html=1;rounded=0;exitX=0;exitY=1;exitDx=0;exitDy=0;strokeWidth=4;fillColor=#60a917;strokeColor=#2D7600;fontFamily=JetBrainsMono Nerd Font;entryX=1;entryY=1;entryDx=0;entryDy=0;" parent="1" source="1LvPg4HEHRrJ_WL0kR_Z-229" target="1LvPg4HEHRrJ_WL0kR_Z-229" edge="1">
          <mxGeometry width="50" height="50" relative="1" as="geometry">
            <mxPoint x="450" y="2250" as="sourcePoint" />
            <mxPoint x="450" y="2320" as="targetPoint" />
          </mxGeometry>
        </mxCell>
        <mxCell id="1LvPg4HEHRrJ_WL0kR_Z-336" value="?" style="rounded=0;whiteSpace=wrap;html=1;fontFamily=JetBrainsMono Nerd Font;" parent="1" vertex="1">
          <mxGeometry x="280" y="3000" width="160" height="40" as="geometry" />
        </mxCell>
        <mxCell id="1LvPg4HEHRrJ_WL0kR_Z-337" value="AAAAAAAA" style="rounded=0;whiteSpace=wrap;html=1;fontFamily=JetBrainsMono Nerd Font;" parent="1" vertex="1">
          <mxGeometry x="280" y="3080" width="160" height="40" as="geometry" />
        </mxCell>
        <mxCell id="1LvPg4HEHRrJ_WL0kR_Z-338" value="AAAAAAAA" style="rounded=0;whiteSpace=wrap;html=1;fontFamily=JetBrainsMono Nerd Font;" parent="1" vertex="1">
          <mxGeometry x="440" y="3080" width="160" height="40" as="geometry" />
        </mxCell>
        <mxCell id="1LvPg4HEHRrJ_WL0kR_Z-339" value="AAAAAAAA" style="rounded=0;whiteSpace=wrap;html=1;fontFamily=JetBrainsMono Nerd Font;" parent="1" vertex="1">
          <mxGeometry x="280" y="3120" width="160" height="40" as="geometry" />
        </mxCell>
        <mxCell id="1LvPg4HEHRrJ_WL0kR_Z-340" value="AAAAAAAA" style="rounded=0;whiteSpace=wrap;html=1;fontFamily=JetBrainsMono Nerd Font;" parent="1" vertex="1">
          <mxGeometry x="440" y="3120" width="160" height="40" as="geometry" />
        </mxCell>
        <mxCell id="1LvPg4HEHRrJ_WL0kR_Z-341" value="BBBBBBBB" style="rounded=0;whiteSpace=wrap;html=1;fontFamily=JetBrainsMono Nerd Font;" parent="1" vertex="1">
          <mxGeometry x="280" y="2800" width="160" height="40" as="geometry" />
        </mxCell>
        <mxCell id="1LvPg4HEHRrJ_WL0kR_Z-342" value="0x111" style="rounded=0;whiteSpace=wrap;html=1;fontFamily=JetBrainsMono Nerd Font;fontColor=#F00000;" parent="1" vertex="1">
          <mxGeometry x="440" y="2800" width="160" height="40" as="geometry" />
        </mxCell>
        <mxCell id="1LvPg4HEHRrJ_WL0kR_Z-343" value="DDDDDDDD" style="rounded=0;whiteSpace=wrap;html=1;fontFamily=JetBrainsMono Nerd Font;" parent="1" vertex="1">
          <mxGeometry x="280" y="2840" width="160" height="40" as="geometry" />
        </mxCell>
        <mxCell id="1LvPg4HEHRrJ_WL0kR_Z-344" value="DDDDDDDD" style="rounded=0;whiteSpace=wrap;html=1;fontFamily=JetBrainsMono Nerd Font;" parent="1" vertex="1">
          <mxGeometry x="440" y="2840" width="160" height="40" as="geometry" />
        </mxCell>
        <mxCell id="1LvPg4HEHRrJ_WL0kR_Z-345" value="DDDDDDDD" style="rounded=0;whiteSpace=wrap;html=1;fontFamily=JetBrainsMono Nerd Font;" parent="1" vertex="1">
          <mxGeometry x="280" y="2880" width="160" height="40" as="geometry" />
        </mxCell>
        <mxCell id="1LvPg4HEHRrJ_WL0kR_Z-346" value="DDDDDDDD" style="rounded=0;whiteSpace=wrap;html=1;fontFamily=JetBrainsMono Nerd Font;" parent="1" vertex="1">
          <mxGeometry x="440" y="2880" width="160" height="40" as="geometry" />
        </mxCell>
        <mxCell id="1LvPg4HEHRrJ_WL0kR_Z-347" value="DDDDDDDD" style="rounded=0;whiteSpace=wrap;html=1;fontFamily=JetBrainsMono Nerd Font;" parent="1" vertex="1">
          <mxGeometry x="280" y="2960" width="160" height="40" as="geometry" />
        </mxCell>
        <mxCell id="1LvPg4HEHRrJ_WL0kR_Z-348" value="0x111" style="rounded=0;whiteSpace=wrap;html=1;fontFamily=JetBrainsMono Nerd Font;" parent="1" vertex="1">
          <mxGeometry x="440" y="2960" width="160" height="40" as="geometry" />
        </mxCell>
        <mxCell id="1LvPg4HEHRrJ_WL0kR_Z-349" value="-80" style="text;html=1;strokeColor=none;fillColor=none;align=center;verticalAlign=middle;whiteSpace=wrap;rounded=0;fontFamily=JetBrainsMono Nerd Font;" parent="1" vertex="1">
          <mxGeometry x="240" y="2800" width="40" height="40" as="geometry" />
        </mxCell>
        <mxCell id="1LvPg4HEHRrJ_WL0kR_Z-350" value="-70" style="text;html=1;strokeColor=none;fillColor=none;align=center;verticalAlign=middle;whiteSpace=wrap;rounded=0;fontFamily=JetBrainsMono Nerd Font;" parent="1" vertex="1">
          <mxGeometry x="240" y="2840" width="40" height="40" as="geometry" />
        </mxCell>
        <mxCell id="1LvPg4HEHRrJ_WL0kR_Z-351" value="-60" style="text;html=1;strokeColor=none;fillColor=none;align=center;verticalAlign=middle;whiteSpace=wrap;rounded=0;fontFamily=JetBrainsMono Nerd Font;" parent="1" vertex="1">
          <mxGeometry x="240" y="2880" width="40" height="40" as="geometry" />
        </mxCell>
        <mxCell id="1LvPg4HEHRrJ_WL0kR_Z-352" value="..." style="text;html=1;strokeColor=none;fillColor=none;align=center;verticalAlign=middle;whiteSpace=wrap;rounded=0;fontFamily=JetBrainsMono Nerd Font;" parent="1" vertex="1">
          <mxGeometry x="280" y="2920" width="320" height="40" as="geometry" />
        </mxCell>
        <mxCell id="1LvPg4HEHRrJ_WL0kR_Z-353" value="-10" style="text;html=1;strokeColor=none;fillColor=none;align=center;verticalAlign=middle;whiteSpace=wrap;rounded=0;fontFamily=JetBrainsMono Nerd Font;" parent="1" vertex="1">
          <mxGeometry x="240" y="2960" width="40" height="40" as="geometry" />
        </mxCell>
        <mxCell id="1LvPg4HEHRrJ_WL0kR_Z-354" value="" style="endArrow=none;html=1;rounded=0;entryX=0;entryY=0;entryDx=0;entryDy=0;strokeWidth=4;exitX=1;exitY=0;exitDx=0;exitDy=0;fillColor=#60a917;strokeColor=#2D7600;fontFamily=JetBrainsMono Nerd Font;" parent="1" source="1LvPg4HEHRrJ_WL0kR_Z-344" target="1LvPg4HEHRrJ_WL0kR_Z-343" edge="1">
          <mxGeometry width="50" height="50" relative="1" as="geometry">
            <mxPoint x="640" y="2840" as="sourcePoint" />
            <mxPoint x="610" y="3090" as="targetPoint" />
          </mxGeometry>
        </mxCell>
        <mxCell id="1LvPg4HEHRrJ_WL0kR_Z-355" value="?" style="rounded=0;whiteSpace=wrap;html=1;fontFamily=JetBrainsMono Nerd Font;" parent="1" vertex="1">
          <mxGeometry x="440" y="3000" width="160" height="40" as="geometry" />
        </mxCell>
        <mxCell id="1LvPg4HEHRrJ_WL0kR_Z-356" value="AAAAAAAA" style="rounded=0;whiteSpace=wrap;html=1;fontFamily=JetBrainsMono Nerd Font;" parent="1" vertex="1">
          <mxGeometry x="280" y="3040" width="160" height="40" as="geometry" />
        </mxCell>
        <mxCell id="1LvPg4HEHRrJ_WL0kR_Z-357" value="AAAAAAAA" style="rounded=0;whiteSpace=wrap;html=1;fontFamily=JetBrainsMono Nerd Font;" parent="1" vertex="1">
          <mxGeometry x="440" y="3040" width="160" height="40" as="geometry" />
        </mxCell>
        <mxCell id="1LvPg4HEHRrJ_WL0kR_Z-358" value="0" style="text;html=1;strokeColor=none;fillColor=none;align=center;verticalAlign=middle;whiteSpace=wrap;rounded=0;fontFamily=JetBrainsMono Nerd Font;" parent="1" vertex="1">
          <mxGeometry x="240" y="3000" width="40" height="40" as="geometry" />
        </mxCell>
        <mxCell id="1LvPg4HEHRrJ_WL0kR_Z-359" value="+10" style="text;html=1;strokeColor=none;fillColor=none;align=center;verticalAlign=middle;whiteSpace=wrap;rounded=0;fontFamily=JetBrainsMono Nerd Font;" parent="1" vertex="1">
          <mxGeometry x="240" y="3040" width="40" height="40" as="geometry" />
        </mxCell>
        <mxCell id="1LvPg4HEHRrJ_WL0kR_Z-360" value="[0].len (0x100)" style="rounded=0;whiteSpace=wrap;html=1;fontFamily=JetBrainsMono Nerd Font;" parent="1" vertex="1">
          <mxGeometry x="640" y="2800" width="160" height="40" as="geometry" />
        </mxCell>
        <mxCell id="1LvPg4HEHRrJ_WL0kR_Z-361" value="[0].addr" style="rounded=0;whiteSpace=wrap;html=1;fontFamily=JetBrainsMono Nerd Font;" parent="1" vertex="1">
          <mxGeometry x="640" y="2840" width="160" height="40" as="geometry" />
        </mxCell>
        <mxCell id="1LvPg4HEHRrJ_WL0kR_Z-362" value="[1].len (0x100)" style="rounded=0;whiteSpace=wrap;html=1;fontFamily=JetBrainsMono Nerd Font;" parent="1" vertex="1">
          <mxGeometry x="640" y="2880" width="160" height="40" as="geometry" />
        </mxCell>
        <mxCell id="1LvPg4HEHRrJ_WL0kR_Z-363" value="[1].addr" style="rounded=0;whiteSpace=wrap;html=1;fontFamily=JetBrainsMono Nerd Font;" parent="1" vertex="1">
          <mxGeometry x="640" y="2920" width="160" height="40" as="geometry" />
        </mxCell>
        <mxCell id="1LvPg4HEHRrJ_WL0kR_Z-364" value="" style="endArrow=none;html=1;rounded=0;entryX=0;entryY=0;entryDx=0;entryDy=0;exitX=0;exitY=1;exitDx=0;exitDy=0;strokeWidth=4;fillColor=#60a917;strokeColor=#2D7600;fontFamily=JetBrainsMono Nerd Font;" parent="1" source="1LvPg4HEHRrJ_WL0kR_Z-339" target="1LvPg4HEHRrJ_WL0kR_Z-343" edge="1">
          <mxGeometry width="50" height="50" relative="1" as="geometry">
            <mxPoint x="330" y="3260" as="sourcePoint" />
            <mxPoint x="380" y="3210" as="targetPoint" />
          </mxGeometry>
        </mxCell>
        <mxCell id="1LvPg4HEHRrJ_WL0kR_Z-365" value="" style="endArrow=none;html=1;rounded=0;entryX=1;entryY=1;entryDx=0;entryDy=0;exitX=1;exitY=0;exitDx=0;exitDy=0;strokeWidth=4;fillColor=#60a917;strokeColor=#2D7600;fontFamily=JetBrainsMono Nerd Font;" parent="1" source="1LvPg4HEHRrJ_WL0kR_Z-344" target="1LvPg4HEHRrJ_WL0kR_Z-338" edge="1">
          <mxGeometry width="50" height="50" relative="1" as="geometry">
            <mxPoint x="450" y="3090" as="sourcePoint" />
            <mxPoint x="610" y="3090" as="targetPoint" />
          </mxGeometry>
        </mxCell>
        <mxCell id="1LvPg4HEHRrJ_WL0kR_Z-366" value="" style="endArrow=classic;html=1;rounded=0;fontFamily=JetBrainsMono Nerd Font;entryX=0;entryY=0.25;entryDx=0;entryDy=0;exitX=0;exitY=0.5;exitDx=0;exitDy=0;" parent="1" source="1LvPg4HEHRrJ_WL0kR_Z-363" target="1LvPg4HEHRrJ_WL0kR_Z-355" edge="1">
          <mxGeometry width="50" height="50" relative="1" as="geometry">
            <mxPoint x="620" y="2900" as="sourcePoint" />
            <mxPoint x="450" y="2864" as="targetPoint" />
            <Array as="points">
              <mxPoint x="620" y="2940" />
              <mxPoint x="620" y="3010" />
            </Array>
          </mxGeometry>
        </mxCell>
        <mxCell id="1LvPg4HEHRrJ_WL0kR_Z-367" value="" style="endArrow=classic;html=1;rounded=0;fontFamily=JetBrainsMono Nerd Font;entryX=0;entryY=0.25;entryDx=0;entryDy=0;exitX=0;exitY=0.5;exitDx=0;exitDy=0;" parent="1" source="1LvPg4HEHRrJ_WL0kR_Z-361" target="1LvPg4HEHRrJ_WL0kR_Z-344" edge="1">
          <mxGeometry width="50" height="50" relative="1" as="geometry">
            <mxPoint x="630" y="2830" as="sourcePoint" />
            <mxPoint x="600" y="2860" as="targetPoint" />
            <Array as="points">
              <mxPoint x="620" y="2860" />
              <mxPoint x="620" y="2850" />
            </Array>
          </mxGeometry>
        </mxCell>
        <mxCell id="1LvPg4HEHRrJ_WL0kR_Z-368" value="[11].len (0x20)&amp;nbsp;" style="rounded=0;whiteSpace=wrap;html=1;fontFamily=JetBrainsMono Nerd Font;" parent="1" vertex="1">
          <mxGeometry x="640" y="3080" width="160" height="40" as="geometry" />
        </mxCell>
        <mxCell id="1LvPg4HEHRrJ_WL0kR_Z-369" value="[11].addr" style="rounded=0;whiteSpace=wrap;html=1;fontFamily=JetBrainsMono Nerd Font;" parent="1" vertex="1">
          <mxGeometry x="640" y="3120" width="160" height="40" as="geometry" />
        </mxCell>
        <mxCell id="1LvPg4HEHRrJ_WL0kR_Z-370" value="" style="endArrow=none;html=1;rounded=0;entryX=1;entryY=0;entryDx=0;entryDy=0;exitX=0;exitY=0;exitDx=0;exitDy=0;strokeWidth=4;fillColor=#60a917;strokeColor=#2D7600;fontFamily=JetBrainsMono Nerd Font;" parent="1" source="1LvPg4HEHRrJ_WL0kR_Z-340" target="1LvPg4HEHRrJ_WL0kR_Z-340" edge="1">
          <mxGeometry width="50" height="50" relative="1" as="geometry">
            <mxPoint x="610" y="2850" as="sourcePoint" />
            <mxPoint x="610" y="3130" as="targetPoint" />
          </mxGeometry>
        </mxCell>
        <mxCell id="1LvPg4HEHRrJ_WL0kR_Z-371" value="" style="endArrow=none;html=1;rounded=0;entryX=0;entryY=1;entryDx=0;entryDy=0;exitX=0;exitY=0;exitDx=0;exitDy=0;strokeWidth=4;fillColor=#60a917;strokeColor=#2D7600;fontFamily=JetBrainsMono Nerd Font;" parent="1" source="1LvPg4HEHRrJ_WL0kR_Z-340" target="1LvPg4HEHRrJ_WL0kR_Z-340" edge="1">
          <mxGeometry width="50" height="50" relative="1" as="geometry">
            <mxPoint x="450" y="3130" as="sourcePoint" />
            <mxPoint x="610" y="3130" as="targetPoint" />
          </mxGeometry>
        </mxCell>
        <mxCell id="1LvPg4HEHRrJ_WL0kR_Z-372" value="" style="endArrow=none;html=1;rounded=0;entryX=0;entryY=1;entryDx=0;entryDy=0;exitX=0;exitY=1;exitDx=0;exitDy=0;strokeWidth=4;fillColor=#60a917;strokeColor=#2D7600;fontFamily=JetBrainsMono Nerd Font;" parent="1" source="1LvPg4HEHRrJ_WL0kR_Z-339" target="1LvPg4HEHRrJ_WL0kR_Z-340" edge="1">
          <mxGeometry width="50" height="50" relative="1" as="geometry">
            <mxPoint x="450" y="3130" as="sourcePoint" />
            <mxPoint x="450" y="3170" as="targetPoint" />
          </mxGeometry>
        </mxCell>
        <mxCell id="1LvPg4HEHRrJ_WL0kR_Z-373" value="+20" style="text;html=1;strokeColor=none;fillColor=none;align=center;verticalAlign=middle;whiteSpace=wrap;rounded=0;fontFamily=JetBrainsMono Nerd Font;" parent="1" vertex="1">
          <mxGeometry x="240" y="3080" width="40" height="40" as="geometry" />
        </mxCell>
        <mxCell id="1LvPg4HEHRrJ_WL0kR_Z-374" value="+30" style="text;html=1;strokeColor=none;fillColor=none;align=center;verticalAlign=middle;whiteSpace=wrap;rounded=0;fontFamily=JetBrainsMono Nerd Font;" parent="1" vertex="1">
          <mxGeometry x="240" y="3120" width="40" height="40" as="geometry" />
        </mxCell>
        <mxCell id="1LvPg4HEHRrJ_WL0kR_Z-377" value="malloc(2, 0x100)" style="text;html=1;strokeColor=none;fillColor=none;align=left;verticalAlign=top;whiteSpace=wrap;rounded=0;fontFamily=JetBrainsMono Nerd Font;" parent="1" vertex="1">
          <mxGeometry x="40" y="2800" width="160" height="40" as="geometry" />
        </mxCell>
        <mxCell id="1LvPg4HEHRrJ_WL0kR_Z-378" value="[2].len (0x100)" style="rounded=0;whiteSpace=wrap;html=1;fontFamily=JetBrainsMono Nerd Font;" parent="1" vertex="1">
          <mxGeometry x="640" y="2960" width="160" height="40" as="geometry" />
        </mxCell>
        <mxCell id="1LvPg4HEHRrJ_WL0kR_Z-379" value="[2].addr" style="rounded=0;whiteSpace=wrap;html=1;fontFamily=JetBrainsMono Nerd Font;fontColor=#F00000;" parent="1" vertex="1">
          <mxGeometry x="640" y="3000" width="160" height="40" as="geometry" />
        </mxCell>
        <mxCell id="1LvPg4HEHRrJ_WL0kR_Z-380" value="" style="endArrow=classic;html=1;rounded=0;fontFamily=JetBrainsMono Nerd Font;entryX=0;entryY=0.5;entryDx=0;entryDy=0;exitX=0;exitY=0.5;exitDx=0;exitDy=0;" parent="1" source="1LvPg4HEHRrJ_WL0kR_Z-379" target="1LvPg4HEHRrJ_WL0kR_Z-368" edge="1">
          <mxGeometry width="50" height="50" relative="1" as="geometry">
            <mxPoint x="650" y="2950" as="sourcePoint" />
            <mxPoint x="450" y="3020" as="targetPoint" />
            <Array as="points">
              <mxPoint x="620" y="3020" />
              <mxPoint x="620" y="3100" />
            </Array>
          </mxGeometry>
        </mxCell>
        <mxCell id="1LvPg4HEHRrJ_WL0kR_Z-382" value="" style="endArrow=classic;html=1;rounded=0;exitX=1;exitY=0.5;exitDx=0;exitDy=0;entryX=1;entryY=0.25;entryDx=0;entryDy=0;" parent="1" source="1LvPg4HEHRrJ_WL0kR_Z-280" target="1LvPg4HEHRrJ_WL0kR_Z-245" edge="1">
          <mxGeometry width="50" height="50" relative="1" as="geometry">
            <mxPoint x="180" y="2120" as="sourcePoint" />
            <mxPoint x="230" y="2070" as="targetPoint" />
            <Array as="points">
              <mxPoint x="220" y="2140" />
              <mxPoint x="220" y="2130" />
            </Array>
          </mxGeometry>
        </mxCell>
        <mxCell id="1LvPg4HEHRrJ_WL0kR_Z-383" value="" style="endArrow=classic;html=1;rounded=0;exitX=1;exitY=0.5;exitDx=0;exitDy=0;entryX=1;entryY=0.25;entryDx=0;entryDy=0;" parent="1" source="1LvPg4HEHRrJ_WL0kR_Z-279" target="1LvPg4HEHRrJ_WL0kR_Z-188" edge="1">
          <mxGeometry width="50" height="50" relative="1" as="geometry">
            <mxPoint x="200" y="1560" as="sourcePoint" />
            <mxPoint x="440" y="1550" as="targetPoint" />
            <Array as="points">
              <mxPoint x="220" y="1580" />
              <mxPoint x="220" y="1570" />
            </Array>
          </mxGeometry>
        </mxCell>
        <mxCell id="1LvPg4HEHRrJ_WL0kR_Z-385" value="" style="endArrow=none;html=1;rounded=0;" parent="1" edge="1">
          <mxGeometry width="50" height="50" relative="1" as="geometry">
            <mxPoint y="480" as="sourcePoint" />
            <mxPoint x="840" y="480" as="targetPoint" />
          </mxGeometry>
        </mxCell>
        <mxCell id="1LvPg4HEHRrJ_WL0kR_Z-386" value="" style="endArrow=none;html=1;rounded=0;" parent="1" edge="1">
          <mxGeometry width="50" height="50" relative="1" as="geometry">
            <mxPoint y="960" as="sourcePoint" />
            <mxPoint x="840" y="960" as="targetPoint" />
          </mxGeometry>
        </mxCell>
        <mxCell id="1LvPg4HEHRrJ_WL0kR_Z-387" value="" style="endArrow=none;html=1;rounded=0;" parent="1" edge="1">
          <mxGeometry width="50" height="50" relative="1" as="geometry">
            <mxPoint y="1320" as="sourcePoint" />
            <mxPoint x="840" y="1320" as="targetPoint" />
          </mxGeometry>
        </mxCell>
        <mxCell id="1LvPg4HEHRrJ_WL0kR_Z-388" value="" style="endArrow=none;html=1;rounded=0;" parent="1" edge="1">
          <mxGeometry width="50" height="50" relative="1" as="geometry">
            <mxPoint y="1880" as="sourcePoint" />
            <mxPoint x="840" y="1880" as="targetPoint" />
          </mxGeometry>
        </mxCell>
        <mxCell id="1LvPg4HEHRrJ_WL0kR_Z-389" value="" style="endArrow=none;html=1;rounded=0;" parent="1" edge="1">
          <mxGeometry width="50" height="50" relative="1" as="geometry">
            <mxPoint y="2320" as="sourcePoint" />
            <mxPoint x="840" y="2320" as="targetPoint" />
          </mxGeometry>
        </mxCell>
        <mxCell id="1LvPg4HEHRrJ_WL0kR_Z-390" value="" style="endArrow=none;html=1;rounded=0;" parent="1" edge="1">
          <mxGeometry width="50" height="50" relative="1" as="geometry">
            <mxPoint y="2760" as="sourcePoint" />
            <mxPoint x="840" y="2760" as="targetPoint" />
          </mxGeometry>
        </mxCell>
        <mxCell id="1LvPg4HEHRrJ_WL0kR_Z-33" value="" style="endArrow=none;html=1;rounded=0;entryX=0;entryY=1;entryDx=0;entryDy=0;exitX=1;exitY=1;exitDx=0;exitDy=0;strokeWidth=4;fillColor=#60a917;strokeColor=#2D7600;fontFamily=JetBrainsMono Nerd Font;" parent="1" source="1LvPg4HEHRrJ_WL0kR_Z-21" target="1LvPg4HEHRrJ_WL0kR_Z-21" edge="1">
          <mxGeometry width="50" height="50" relative="1" as="geometry">
            <mxPoint x="290" y="370" as="sourcePoint" />
            <mxPoint x="290" y="90" as="targetPoint" />
          </mxGeometry>
        </mxCell>
      </root>
    </mxGraphModel>
  </diagram>
</mxfile>
